<?xml version="1.0" encoding="UTF-8"?>
<svg version="1.1" xmlns="http://www.w3.org/2000/svg" width="1024" height="1024">
<path d="M0 0 C1.01578125 -0.01611328 2.0315625 -0.03222656 3.078125 -0.04882812 C21.09544093 -0.06037769 36.46588401 8.95289311 49 21.3125 C59.42475475 32.14808253 66.21665424 47.24461392 67 62.3125 C67.06445312 63.34117187 67.12890625 64.36984375 67.1953125 65.4296875 C67.66322096 79.18619626 64.5474419 91.71864402 57 103.3125 C56.43667969 104.21355469 55.87335938 105.11460937 55.29296875 106.04296875 C45.99791393 119.9170611 30.91971437 131.41405301 14.3125 134.75 C12.54487901 134.96569185 10.77354527 135.1526747 9 135.3125 C8.01 135.45429688 7.02 135.59609375 6 135.7421875 C-13.4444027 138.07742214 -29.75025395 130.62272832 -45 119.3125 C-45.73476563 118.72597656 -46.46953125 118.13945312 -47.2265625 117.53515625 C-48.96711705 116.07830056 -48.96711705 116.07830056 -51.375 116.375 C-57.37007305 118.51609752 -61.86620665 122.79104057 -66.3125 127.1875 C-66.84939453 127.69152344 -67.38628906 128.19554687 -67.93945312 128.71484375 C-70.26975078 131.01281697 -71.88482659 133.0127104 -73.0625 136.078125 C-72.97065449 140.83113015 -71.3474082 144.77042221 -69.6875 149.1875 C-66.45522507 158.30897509 -64.58392516 166.64529459 -64 176.3125 C-63.89558594 177.73175781 -63.89558594 177.73175781 -63.7890625 179.1796875 C-63.13824624 196.05084751 -68.74205204 214.39628076 -78 228.3125 C-79.46010444 231.23270889 -79.37238309 233.0570272 -79 236.3125 C-77.60340564 238.89128303 -75.81691526 241.0697494 -73.9375 243.3125 C-73.43452393 243.92899414 -72.93154785 244.54548828 -72.41333008 245.18066406 C-65.21173372 254.14274551 -65.21173372 254.14274551 -55 258.3125 C-50.15094368 256.4038289 -46.45813893 252.86957429 -42.6875 249.375 C-28.21797672 236.21863551 -10.11191515 233.58386502 8.69824219 234.18945312 C24.79260496 235.04982212 39.64470422 244.0154322 50.8828125 255.18359375 C54.07321696 258.28100436 55.27430586 259.26568102 59.875 259.5625 C69.54955612 257.41467383 77.82856911 248.86600566 83.5 241.125 C85.1762287 237.9820712 85.45854313 236.80448226 85 233.3125 C83.2077827 230.25958887 83.2077827 230.25958887 80.8125 227.1875 C71.71059674 214.60509147 66.6293875 199.89613459 66 184.3125 C65.90525391 183.03826172 65.90525391 183.03826172 65.80859375 181.73828125 C64.92392329 161.27670958 71.99365227 141.87676278 85 126.3125 C85.7115625 125.44882812 86.423125 124.58515625 87.15625 123.6953125 C102.08039404 106.33788411 121.08742764 94.76829554 144 92.3125 C168.99887834 90.82506282 190.54016935 95.88958232 210 112.3125 C227.30603829 127.68749729 239.65686128 147.51623547 241.17578125 171.03417969 C241.98817769 188.61095685 240.4273464 204.5908958 232 220.3125 C231.50886719 221.27414062 231.01773437 222.23578125 230.51171875 223.2265625 C219.17115898 244.17547243 198.67052294 260.34521316 176 267.3125 C155.80394855 272.80570754 134.68244036 270.97399059 116 261.3125 C111.33774041 258.59921778 106.84445548 255.69147775 102.5234375 252.4609375 C101.36714844 251.61402344 101.36714844 251.61402344 100.1875 250.75 C99.18783203 249.97462891 99.18783203 249.97462891 98.16796875 249.18359375 C95.9282902 248.06042594 95.9282902 248.06042594 93.10546875 248.8359375 C89.520427 250.54052339 86.92724309 252.75530256 84.125 255.5 C83.07768148 256.49699642 82.02950262 257.49308987 80.98046875 258.48828125 C80.2212915 259.2145874 80.2212915 259.2145874 79.44677734 259.95556641 C77.50636587 261.77547983 75.47681445 263.47990399 73.4375 265.1875 C69.40093585 268.65993414 69.40093585 268.65993414 67 273.3125 C67.43580089 278.04875118 68.79480491 282.55521396 70.03515625 287.1328125 C73.88305246 302.62073108 72.37025662 319.12955126 66.03295898 333.68383789 C63.79062176 338.9999563 62.8127164 343.95148324 64.78515625 349.53515625 C68.54019222 354.94378603 72.98774605 359.65868471 77.5625 364.375 C78.21162354 365.05506104 78.86074707 365.73512207 79.52954102 366.43579102 C80.16045654 367.06670654 80.79137207 367.69762207 81.44140625 368.34765625 C82.28747437 369.20435913 82.28747437 369.20435913 83.15063477 370.07836914 C85.59457202 371.7092738 87.11689515 371.67372091 90 371.3125 C92.55372183 369.39877639 92.55372183 369.39877639 95 366.8125 C100.74986536 361.25709361 107.01458136 357.21661018 114 353.3125 C115.485 352.45978516 115.485 352.45978516 117 351.58984375 C124.42727135 347.57003067 131.71486036 345.75024583 140 344.3125 C141.18335938 344.03599609 141.18335938 344.03599609 142.390625 343.75390625 C162.94899221 340.27621838 183.92735207 345.83951218 201 357.3125 C207.27578853 362.05950291 213.21846911 367.02459251 218 373.3125 C218.75796875 374.22644531 219.5159375 375.14039063 220.296875 376.08203125 C233.87464956 392.92452549 241.41227195 411.71081616 241.375 433.5 C241.37338867 434.49741211 241.37177734 435.49482422 241.37011719 436.52246094 C241.22575856 445.32267592 239.73236752 452.9535499 237 461.3125 C236.72285156 462.27929688 236.44570313 463.24609375 236.16015625 464.2421875 C230.44419361 482.41736825 215.88572132 497.14820901 201 508.3125 C200.29875 508.86421875 199.5975 509.4159375 198.875 509.984375 C194.25951173 513.37605956 189.38072586 515.53228789 184.0625 517.5625 C183.41837158 517.80895264 182.77424316 518.05540527 182.1105957 518.30932617 C162.20140281 525.51890122 139.08028563 524.47759183 119.91381836 515.67724609 C109.75519536 510.74573398 100.22175966 504.3790009 92 496.625 C89.22618799 494.02637327 89.22618799 494.02637327 85.9375 494.1875 C80.19267228 496.38764679 76.15362659 499.85494951 72 504.3125 C71.39542969 504.92351562 70.79085938 505.53453125 70.16796875 506.1640625 C69.53503906 506.83179688 68.90210938 507.49953125 68.25 508.1875 C67.65703125 508.80367187 67.0640625 509.41984375 66.453125 510.0546875 C63.91724099 513.99485137 63.72495964 517.81420323 64.55859375 522.35546875 C64.84863281 523.39316406 65.13867188 524.43085937 65.4375 525.5 C69.60010773 543.47402507 67.58367077 561.42696168 58 577.3125 C48.07744165 592.20946261 34.52825843 604.35463051 16.76171875 608.84765625 C-3.63779024 612.28123697 -21.22689735 608.98134953 -38.56640625 597.6328125 C-40.44962922 596.25344995 -42.22789415 594.83089025 -44 593.3125 C-44.96421875 592.5596875 -45.9284375 591.806875 -46.921875 591.03125 C-55.46140295 583.90258904 -61.97649756 571.89475852 -65 561.3125 C-65.185625 560.66925781 -65.37125 560.02601563 -65.5625 559.36328125 C-67.2126323 552.98047783 -67.24577068 546.87203481 -67 540.3125 C-66.99355469 539.43851563 -66.98710937 538.56453125 -66.98046875 537.6640625 C-66.22094231 518.92907709 -54.89736895 503.94191807 -42 491.3125 C-38.82707286 488.64862504 -35.56478029 486.41798201 -32 484.3125 C-31.06414062 483.75691406 -30.12828125 483.20132812 -29.1640625 482.62890625 C-16.09835306 475.47877392 2.72871861 473.47636537 17.3125 477.375 C28.86306756 481.66347692 40.45331203 487.34009089 48 497.3125 C48.7425 497.869375 49.485 498.42625 50.25 499 C50.8275 499.433125 51.405 499.86625 52 500.3125 C52 500.9725 52 501.6325 52 502.3125 C59.22134979 502.12733718 64.36196469 497.0512603 69.1484375 492.08203125 C71 490.3125 71 490.3125 73 490.3125 C73.4021875 489.44625 73.4021875 489.44625 73.8125 488.5625 C75 486.3125 75 486.3125 76.6875 484.5 C78.23702747 481.91745422 78.2683474 480.26424026 77.70703125 477.328125 C76.86322734 474.92258457 75.65157098 473.06701869 74.25 470.9375 C71.33752058 466.3617492 69.68961678 461.85509608 68.1875 456.6875 C67.98092773 455.98318848 67.77435547 455.27887695 67.56152344 454.55322266 C61.45137063 432.55153795 65.29762394 409.73322492 75.875 389.8125 C76.52082031 388.68328125 76.52082031 388.68328125 77.1796875 387.53125 C78.24993302 384.63649068 77.9546126 383.23432829 77 380.3125 C71.88996011 370.8754102 65.4302141 361.79442377 56 356.3125 C52.41804672 355.57343755 52.41804672 355.57343755 49 357.3125 C46.78231856 359.13305137 44.72135402 361.07940291 42.63671875 363.05078125 C26.94763183 376.50853137 8.94338568 378.63398331 -11 377.3125 C-23.92859587 375.79308475 -35.57632228 368.91260025 -45.59765625 360.9140625 C-48.19245598 359.18419602 -49.90322704 358.55225016 -53 358.3125 C-62.25636357 361.7640254 -69.97026095 368.77065231 -75.0625 377.1953125 C-76.44008241 380.30635277 -77.41220849 382.93446926 -78 386.3125 C-76.92370091 389.09541697 -75.87158242 391.28423769 -74.375 393.8125 C-63.38383453 413.93976201 -62.28563346 437.46042762 -68.40136719 459.31591797 C-72.63394595 473.43256931 -80.87541087 485.70666898 -91 496.3125 C-91.66 496.3125 -92.32 496.3125 -93 496.3125 C-93.21785156 496.88226562 -93.43570313 497.45203125 -93.66015625 498.0390625 C-100.98717818 510.47150204 -122.09382776 518.10836984 -135.25 521.5625 C-157.48075129 525.79692882 -179.90779668 522.04802266 -198.87890625 509.56640625 C-219.90948562 494.37911677 -235.76510852 473.84742778 -240.625 447.92553711 C-243.9134708 425.01114715 -238.96198813 402.22423794 -226.0703125 383.03125 C-210.58315841 362.69340237 -189.75395731 348.29573654 -164.12890625 344.55566406 C-140.58167175 341.86609462 -118.64793908 347.93678411 -100.0859375 362.6171875 C-92.81334459 368.49915541 -92.81334459 368.49915541 -90 371.3125 C-87.59853172 371.81851758 -87.59853172 371.81851758 -85 371.3125 C-82.7220665 369.60357057 -82.7220665 369.60357057 -80.6875 367.25 C-77.84641055 364.22485326 -75.03025819 361.43232228 -71.8125 358.8125 C-67.66466344 355.20604773 -64.27024748 351.36336067 -62 346.3125 C-61.69183424 340.04646293 -64.1749262 335.08639348 -66.74609375 329.4375 C-69.80706968 321.80889954 -70.38660651 314.89970479 -70.375 306.75 C-70.37483887 305.69240479 -70.37467773 304.63480957 -70.37451172 303.54516602 C-70.22835248 293.45787045 -68.03830158 285.20376665 -64.75390625 275.7109375 C-63.69929984 270.95701224 -64.94849583 269.03600741 -67.25390625 264.9375 C-73.09829276 256.15130819 -79.90705111 248.83241762 -90.5 246.5625 C-94.8716308 247.49927803 -97.04435154 249.40614968 -100.42578125 252.2421875 C-119.6001729 267.66317016 -142.05364875 272.63552603 -166.14501953 270.08544922 C-190.74566857 266.54070513 -209.8909656 251.18965683 -225.9375 233.125 C-227.90563571 230.44117858 -229.43356785 227.76175856 -230.8359375 224.74609375 C-231.72049858 222.89682679 -232.67660496 221.08158722 -233.6640625 219.28515625 C-244.16458643 199.78099159 -246.4878889 177.22631793 -240.1875 155.875 C-239.5996875 154.1115625 -239.5996875 154.1115625 -239 152.3125 C-238.649375 151.19875 -238.29875 150.085 -237.9375 148.9375 C-233.92754127 137.35317478 -226.75495702 124.97758947 -217.3125 117 C-215.14739378 115.16462555 -213.02107228 113.33271965 -210.97265625 111.3671875 C-194.86421494 96.06866782 -173.43420505 89.86917032 -151.55834961 89.87573242 C-133.10519305 90.36358491 -114.01525179 97.14471322 -100 109.3125 C-99.3503125 109.86679687 -98.700625 110.42109375 -98.03125 110.9921875 C-95.26148349 113.38910083 -92.52864778 115.80150651 -89.89453125 118.34765625 C-89.20746094 118.99605469 -88.52039063 119.64445312 -87.8125 120.3125 C-87.20019531 120.910625 -86.58789062 121.50875 -85.95703125 122.125 C-84.04418042 123.52158562 -84.04418042 123.52158562 -81.6328125 123.28515625 C-73.96073843 120.45081435 -64.47078803 111.78804345 -61 104.3125 C-60.8161671 99.2570953 -62.71975621 95.33594594 -64.96484375 90.9140625 C-70.86214087 76.09293086 -69.51135534 56.69739708 -63.3359375 42.28125 C-54.97931807 24.01563811 -40.95471301 9.51774728 -22 2.3125 C-14.70092823 0.29304759 -7.53823689 -0.02391573 0 0 Z " fill="#374D62" transform="translate(508,191.6875)"/>
<path d="M0 0 C1.01578125 -0.01611328 2.0315625 -0.03222656 3.078125 -0.04882812 C21.09544093 -0.06037769 36.46588401 8.95289311 49 21.3125 C59.42475475 32.14808253 66.21665424 47.24461392 67 62.3125 C67.06445312 63.34117187 67.12890625 64.36984375 67.1953125 65.4296875 C67.66322096 79.18619626 64.5474419 91.71864402 57 103.3125 C56.43667969 104.21355469 55.87335938 105.11460937 55.29296875 106.04296875 C45.99791393 119.9170611 30.91971437 131.41405301 14.3125 134.75 C12.54487901 134.96569185 10.77354527 135.1526747 9 135.3125 C8.01 135.45429688 7.02 135.59609375 6 135.7421875 C-13.4444027 138.07742214 -29.75025395 130.62272832 -45 119.3125 C-45.73476563 118.72597656 -46.46953125 118.13945312 -47.2265625 117.53515625 C-48.96711705 116.07830056 -48.96711705 116.07830056 -51.375 116.375 C-57.37007305 118.51609752 -61.86620665 122.79104057 -66.3125 127.1875 C-66.84939453 127.69152344 -67.38628906 128.19554687 -67.93945312 128.71484375 C-70.26975078 131.01281697 -71.88482659 133.0127104 -73.0625 136.078125 C-72.97065449 140.83113015 -71.3474082 144.77042221 -69.6875 149.1875 C-66.45522507 158.30897509 -64.58392516 166.64529459 -64 176.3125 C-63.89558594 177.73175781 -63.89558594 177.73175781 -63.7890625 179.1796875 C-63.13824624 196.05084751 -68.74205204 214.39628076 -78 228.3125 C-79.4806447 231.2737894 -79.05837767 234.04335067 -79 237.3125 C-79 237.9725 -79 238.6325 -79 239.3125 C-78.01 240.488125 -78.01 240.488125 -77 241.6875 C-75 244.3125 -75 244.3125 -75 248.3125 C-77.91482778 249.12217438 -79.46113217 249.53095993 -82.3125 248.375 C-82.869375 248.024375 -83.42625 247.67375 -84 247.3125 C-84 246.6525 -84 245.9925 -84 245.3125 C-86.64 244.9825 -89.28 244.6525 -92 244.3125 C-91.01 244.9725 -90.02 245.6325 -89 246.3125 C-90.010625 246.51875 -91.02125 246.725 -92.0625 246.9375 C-95.0362045 247.78881898 -96.85773214 248.84638579 -99.125 250.9375 C-116.61950413 266.94477559 -138.55424901 271.4545622 -161.46044922 270.48095703 C-187.98208569 268.72168678 -208.91443139 252.28900669 -225.9375 233.125 C-227.90563571 230.44117858 -229.43356785 227.76175856 -230.8359375 224.74609375 C-231.72049858 222.89682679 -232.67660496 221.08158722 -233.6640625 219.28515625 C-244.16458643 199.78099159 -246.4878889 177.22631793 -240.1875 155.875 C-239.5996875 154.1115625 -239.5996875 154.1115625 -239 152.3125 C-238.649375 151.19875 -238.29875 150.085 -237.9375 148.9375 C-233.92754127 137.35317478 -226.75495702 124.97758947 -217.3125 117 C-215.14739378 115.16462555 -213.02107228 113.33271965 -210.97265625 111.3671875 C-194.86421494 96.06866782 -173.43420505 89.86917032 -151.55834961 89.87573242 C-133.10519305 90.36358491 -114.01525179 97.14471322 -100 109.3125 C-99.3503125 109.86679687 -98.700625 110.42109375 -98.03125 110.9921875 C-95.26148349 113.38910083 -92.52864778 115.80150651 -89.89453125 118.34765625 C-89.20746094 118.99605469 -88.52039063 119.64445312 -87.8125 120.3125 C-87.20019531 120.910625 -86.58789062 121.50875 -85.95703125 122.125 C-84.04418042 123.52158562 -84.04418042 123.52158562 -81.6328125 123.28515625 C-73.96073843 120.45081435 -64.47078803 111.78804345 -61 104.3125 C-60.8161671 99.2570953 -62.71975621 95.33594594 -64.96484375 90.9140625 C-70.86214087 76.09293086 -69.51135534 56.69739708 -63.3359375 42.28125 C-54.97931807 24.01563811 -40.95471301 9.51774728 -22 2.3125 C-14.70092823 0.29304759 -7.53823689 -0.02391573 0 0 Z " fill="#2780CC" transform="translate(508,191.6875)"/>
<path d="M0 0 C4.34303678 3.65661431 8.26837605 7.28229186 11.72387695 11.82641602 C12.4818457 12.74036133 13.23981445 13.65430664 14.02075195 14.59594727 C27.59852651 31.4384415 35.13614891 50.22473218 35.09887695 72.01391602 C35.09726562 73.01132812 35.0956543 74.00874023 35.09399414 75.03637695 C34.94963552 83.83659194 33.45624447 91.46746592 30.72387695 99.82641602 C30.44672852 100.79321289 30.16958008 101.76000977 29.8840332 102.75610352 C24.16807056 120.93128426 9.60959827 135.66212503 -5.27612305 146.82641602 C-5.97737305 147.37813477 -6.67862305 147.92985352 -7.40112305 148.49829102 C-12.01661132 151.88997558 -16.89539719 154.04620391 -22.21362305 156.07641602 C-23.17981567 156.44609497 -23.17981567 156.44609497 -24.16552734 156.82324219 C-44.07472024 164.03281723 -67.19583742 162.99150784 -86.36230469 154.19116211 C-96.52092769 149.25965 -106.05436339 142.89291692 -114.27612305 135.13891602 C-117.04993506 132.54028928 -117.04993506 132.54028928 -120.33862305 132.70141602 C-126.08345076 134.9015628 -130.12249645 138.36886552 -134.27612305 142.82641602 C-134.88069336 143.43743164 -135.48526367 144.04844727 -136.1081543 144.67797852 C-136.74108398 145.34571289 -137.37401367 146.01344727 -138.02612305 146.70141602 C-138.6190918 147.31758789 -139.21206055 147.93375977 -139.82299805 148.56860352 C-142.35888206 152.50876738 -142.5511634 156.32811924 -141.7175293 160.86938477 C-141.2824707 162.42592773 -141.2824707 162.42592773 -140.83862305 164.01391602 C-136.67601532 181.98794108 -138.69245227 199.94087769 -148.27612305 215.82641602 C-158.1986814 230.72337862 -171.74786462 242.86854653 -189.5144043 247.36157227 C-209.91391329 250.79515299 -227.5030204 247.49526554 -244.8425293 236.14672852 C-246.72575227 234.76736596 -248.5040172 233.34480627 -250.27612305 231.82641602 C-251.72245117 230.69719727 -251.72245117 230.69719727 -253.19799805 229.54516602 C-261.737526 222.41650506 -268.25262061 210.40867454 -271.27612305 199.82641602 C-271.46174805 199.18317383 -271.64737305 198.53993164 -271.83862305 197.87719727 C-273.48875535 191.49439385 -273.52189373 185.38595082 -273.27612305 178.82641602 C-273.26967773 177.95243164 -273.26323242 177.07844727 -273.2565918 176.17797852 C-272.49706536 157.44299311 -261.173492 142.45583409 -248.27612305 129.82641602 C-245.10319591 127.16254105 -241.84090333 124.93189803 -238.27612305 122.82641602 C-237.34026367 122.27083008 -236.4044043 121.71524414 -235.44018555 121.14282227 C-222.3744761 113.99268993 -203.54740443 111.99028139 -188.96362305 115.88891602 C-177.41305549 120.17739294 -165.82281102 125.85400691 -158.27612305 135.82641602 C-157.53362305 136.38329102 -156.79112305 136.94016602 -156.02612305 137.51391602 C-155.44862305 137.94704102 -154.87112305 138.38016602 -154.27612305 138.82641602 C-154.27612305 139.48641602 -154.27612305 140.14641602 -154.27612305 140.82641602 C-147.05477326 140.6412532 -141.91415836 135.56517631 -137.12768555 130.59594727 C-135.27612305 128.82641602 -135.27612305 128.82641602 -133.27612305 128.82641602 C-133.00799805 128.24891602 -132.73987305 127.67141602 -132.46362305 127.07641602 C-131.27612305 124.82641602 -131.27612305 124.82641602 -129.58862305 123.01391602 C-128.03909558 120.43137023 -128.00777564 118.77815627 -128.5690918 115.84204102 C-129.41289571 113.43650059 -130.62455207 111.58093471 -132.02612305 109.45141602 C-134.93860247 104.87566521 -136.58650626 100.3690121 -138.08862305 95.20141602 C-138.29519531 94.49710449 -138.50176758 93.79279297 -138.71459961 93.06713867 C-145.28872694 69.39475582 -140.040256 46.23057891 -128.8034668 24.97094727 C-127.12509173 22.61435415 -125.86539515 21.98675372 -123.27612305 20.82641602 C-122.15526993 18.48333512 -122.15526993 18.48333512 -121.27612305 15.82641602 C-118.0516934 9.58163455 -112.72290553 6.06615529 -107.27612305 1.82641602 C-106.61354492 1.28758789 -105.9509668 0.74875977 -105.26831055 0.19360352 C-74.51908999 -24.16616862 -30.59619052 -25.16025464 0 0 Z " fill="#104F92" transform="translate(714.276123046875,553.173583984375)"/>
<path d="M0 0 C4.24914702 3.42168155 8.35355574 6.84769758 12.15625 10.765625 C9.82729031 13.12415156 7.4922689 15.47659174 5.15625 17.828125 C4.50785156 18.48490234 3.85945312 19.14167969 3.19140625 19.81835938 C-0.05085679 23.07667322 -3.32735212 26.2320398 -6.8125 29.23046875 C-11.2143465 33.02566428 -15.27321059 37.12094098 -19.34375 41.265625 C-23.38290791 45.37835591 -27.40512424 49.44655045 -31.78125 53.203125 C-36.55307391 57.30867654 -40.93050943 61.7815459 -45.34375 66.265625 C-54.30177358 75.36743708 -54.30177358 75.36743708 -58.5 78.921875 C-65.32891644 84.78398573 -71.5167355 91.37433024 -77.84375 97.765625 C-93.09962031 113.17648963 -93.09962031 113.17648963 -99.1484375 118.29736328 C-102.20086382 120.94098251 -105.01144762 123.82790895 -107.84375 126.703125 C-108.42769531 127.29158203 -109.01164062 127.88003906 -109.61328125 128.48632812 C-111.02579805 129.91042293 -112.4351281 131.3376775 -113.84375 132.765625 C-117.67802416 131.48753361 -119.18548057 129.19023604 -121.53125 126.078125 C-121.97041748 125.49579102 -122.40958496 124.91345703 -122.86206055 124.31347656 C-137.99739975 103.83351351 -143.29409303 81.62356857 -140.41796875 56.32421875 C-136.66905068 33.1637249 -123.11043043 12.70836552 -104.53515625 -1.39453125 C-72.0102818 -23.62851654 -31.46009108 -24.71864299 0 0 Z " fill="#CFD8DD" transform="translate(407.84375,554.234375)"/>
<path d="M0 0 C3.33651928 2.78782259 6.41630088 5.75909727 9.3515625 8.96484375 C7.98084924 12.03531341 6.42052853 14.14682935 4.04943848 16.52093506 C3.36803299 17.20798019 2.6866275 17.89502533 1.98457336 18.60289001 C1.23749619 19.34591873 0.49041901 20.08894745 -0.27929688 20.85449219 C-1.06641556 21.64511551 -1.85353424 22.43573883 -2.664505 23.25032043 C-5.26872115 25.86334258 -7.88018904 28.46897754 -10.4921875 31.07421875 C-12.30087097 32.88424892 -14.10925742 34.69457594 -15.9173584 36.50518799 C-19.70712251 40.29790161 -23.50038756 44.08706558 -27.29638672 47.87353516 C-31.68884658 52.25509546 -36.0740338 56.64383558 -40.45554304 61.03634429 C-44.66910049 65.26005656 -48.88824859 69.47814924 -53.1098175 73.69385529 C-54.90712009 75.48981964 -56.70292701 77.28728201 -58.49723816 79.08623505 C-60.9992245 81.59327307 -63.50748465 84.09385613 -66.01757812 86.59277344 C-66.7646553 87.34389908 -67.51173248 88.09502472 -68.28144836 88.86891174 C-68.96285385 89.54467758 -69.64425934 90.22044342 -70.34631348 90.91668701 C-70.93919411 91.50881359 -71.53207474 92.10094017 -72.14292145 92.71100998 C-73.6484375 93.96484375 -73.6484375 93.96484375 -75.6484375 93.96484375 C-75.91011719 94.56554687 -76.17179688 95.16625 -76.44140625 95.78515625 C-77.72266549 98.09888652 -78.89650832 99.21942705 -80.9609375 100.83984375 C-83.42311404 102.85062126 -85.48630557 104.84804632 -87.4609375 107.33984375 C-88.1828125 108.20609375 -88.9046875 109.07234375 -89.6484375 109.96484375 C-90.3084375 109.96484375 -90.9684375 109.96484375 -91.6484375 109.96484375 C-91.91108398 110.55201172 -92.17373047 111.13917969 -92.44433594 111.74414062 C-93.70724131 114.07329457 -95.0487562 115.62352945 -96.9140625 117.49609375 C-97.55730469 118.14191406 -98.20054687 118.78773438 -98.86328125 119.453125 C-99.53488281 120.11699219 -100.20648437 120.78085937 -100.8984375 121.46484375 C-101.55457031 122.12871094 -102.21070313 122.79257812 -102.88671875 123.4765625 C-106.58212152 127.15727182 -110.19093953 130.25158411 -114.6484375 132.96484375 C-115.88541667 131.43489583 -117.12239583 129.90494792 -118.359375 128.375 C-119.6150766 126.83217938 -119.6150766 126.83217938 -121.6484375 125.96484375 C-122.57952486 124.37854677 -123.50156815 122.78639356 -124.3828125 121.171875 C-125.84185399 118.62755881 -127.46072159 116.21870069 -129.0859375 113.77734375 C-136.77626682 101.72312306 -140.89812544 88.22077293 -141.6484375 73.96484375 C-141.71289062 73.11148438 -141.77734375 72.258125 -141.84375 71.37890625 C-142.70367016 50.91280635 -135.66131025 31.53691481 -122.6484375 15.96484375 C-121.936875 15.10117187 -121.2253125 14.2375 -120.4921875 13.34765625 C-89.48120145 -22.71946883 -38.01016845 -28.99567231 0 0 Z " fill="#D0D8DE" transform="translate(715.6484375,302.03515625)"/>
<path d="M0 0 C14.1443278 12.85847982 22.70374019 32.91990413 24.22485352 51.78930664 C24.33792219 54.59216736 24.37979835 57.3823859 24.375 60.1875 C24.37338867 61.18491211 24.37177734 62.18232422 24.37011719 63.20996094 C24.22575856 72.01017592 22.73236752 79.6410499 20 88 C19.72285156 88.96679688 19.44570313 89.93359375 19.16015625 90.9296875 C13.44419361 109.10486825 -1.11427868 123.83570901 -16 135 C-16.70125 135.55171875 -17.4025 136.1034375 -18.125 136.671875 C-22.74048827 140.06355956 -27.61927414 142.21978789 -32.9375 144.25 C-33.90369263 144.61967896 -33.90369263 144.61967896 -34.8894043 144.99682617 C-54.86324644 152.22981219 -78.04684234 151.16668273 -97.23999023 142.26220703 C-115.93392495 133.13215009 -115.93392495 133.13215009 -119 127 C-113.96953683 120.35517616 -108.54175398 114.41538044 -102.58984375 108.5859375 C-100.45326484 106.45258119 -98.45481637 104.29702643 -96.5 102 C-93.20035312 98.12788426 -89.60791056 94.57863014 -85.98974609 91.00927734 C-82.90500247 87.95021316 -80.0200464 84.80458844 -77.24609375 81.46484375 C-75.3008497 79.17811485 -73.12230539 77.12230539 -71 75 C-69.64086272 73.48360716 -68.28735758 71.96215928 -66.9375 70.4375 C-62.92398649 65.94156082 -58.74007808 61.6667259 -54.42553711 57.46264648 C-51.77050205 54.85464322 -49.26963505 52.18159222 -46.8515625 49.3515625 C-41.56472807 43.24133296 -35.71812388 37.66157705 -29.97021484 31.99072266 C-24.61410479 26.69995199 -19.34297278 21.4006935 -14.44873047 15.67138672 C-12.51181498 13.43678553 -10.43302954 11.37211666 -8.3125 9.3125 C-5.31139379 6.35236452 -2.51801219 3.39384252 0 0 Z " fill="#152D41" transform="translate(725,565)"/>
<path d="M0 0 C-0.51411251 4.66128672 -2.41787093 7.32385895 -5.25 11 C-6.01828125 12.010625 -6.7865625 13.02125 -7.578125 14.0625 C-9.91401375 16.89570701 -12.37644395 19.4345607 -15 22 C-22.10564794 29.59837536 -28.85908698 37.5267274 -35.13671875 45.82421875 C-35.75160156 46.54222656 -36.36648438 47.26023437 -37 48 C-37.66 48 -38.32 48 -39 48 C-39.26425781 48.59296875 -39.52851563 49.1859375 -39.80078125 49.796875 C-41.04370425 52.08029054 -42.30401646 53.47426723 -44.1875 55.25 C-47.46468472 58.4247727 -50.46063074 61.76345533 -53.4375 65.21875 C-55.20715132 67.2361525 -57.10299205 69.10299205 -59 71 C-59.66 71.825 -60.32 72.65 -61 73.5 C-62.87930691 75.84913364 -64.84166118 77.90910927 -67 80 C-69.88175485 82.72007167 -69.88175485 82.72007167 -72 86 C-72.66 86 -73.32 86 -74 86 C-74.23976563 86.55429687 -74.47953125 87.10859375 -74.7265625 87.6796875 C-76.28844172 90.52556558 -78.20605704 92.71106016 -80.375 95.125 C-81.14585937 95.99382812 -81.91671875 96.86265625 -82.7109375 97.7578125 C-84.7983932 99.80252167 -86.39820514 100.7924405 -89 102 C-89.36548445 103.32488113 -89.6937566 104.66018514 -90 106 C-91.93436835 108.69429877 -93.96684621 110.96859115 -96.375 113.25 C-99.23098191 116.24198105 -101.33661209 119.38224458 -103.58203125 122.83984375 C-105.24424626 125.37208866 -106.96838986 127.75071735 -109 130 C-109.66 130 -110.32 130 -111 130 C-111.33 131.32 -111.66 132.64 -112 134 C-115 134 -115 134 -117.12109375 132.09375 C-121.01895447 127.72919769 -124.63044834 123.68472652 -126.9765625 118.29296875 C-128.03229397 115.84457208 -128.03229397 115.84457208 -129.6484375 112.98828125 C-140.18115401 93.50053361 -142.48566966 70.90629717 -136.1875 49.5625 C-135.795625 48.386875 -135.40375 47.21125 -135 46 C-134.649375 44.88625 -134.29875 43.7725 -133.9375 42.625 C-129.92754127 31.04067478 -122.75495702 18.66508947 -113.3125 10.6875 C-111.14739378 8.85212555 -109.02107228 7.02021965 -106.97265625 5.0546875 C-79.21461946 -21.30769381 -30.17137031 -24.2879531 0 0 Z " fill="#3FA7F1" transform="translate(404,298)"/>
<path d="M0 0 C1.01578125 -0.01611328 2.0315625 -0.03222656 3.078125 -0.04882812 C21.09544093 -0.06037769 36.46588401 8.95289311 49 21.3125 C59.42475475 32.14808253 66.21665424 47.24461392 67 62.3125 C67.06445312 63.34117187 67.12890625 64.36984375 67.1953125 65.4296875 C67.5153548 74.83893114 65.971315 83.42024343 63 92.3125 C62.34 92.9725 61.68 93.6325 61 94.3125 C60.8371487 90.40406884 60.92818645 87.57023399 61.98828125 83.765625 C63.3440842 78.54988484 63.34197615 73.42583964 63.3125 68.0625 C63.30903564 67.04486572 63.30557129 66.02723145 63.30200195 64.97875977 C63.16087809 55.22873847 61.72143699 46.9342545 57 38.3125 C56.30028027 36.32382287 55.62335603 34.32641949 55 32.3125 C54.01 32.3125 53.02 32.3125 52 32.3125 C52 30.9925 52 29.6725 52 28.3125 C50.68 27.6525 49.36 26.9925 48 26.3125 C48 25.6525 48 24.9925 48 24.3125 C46.515 23.8175 46.515 23.8175 45 23.3125 C44.505 21.8275 44.505 21.8275 44 20.3125 C42.15028304 19.26228897 42.15028304 19.26228897 40 18.3125 C36.19565217 15.70380435 36.19565217 15.70380435 35 13.3125 C34.01 12.9825 33.02 12.6525 32 12.3125 C32 11.6525 32 10.9925 32 10.3125 C28.84951931 9.2367261 25.70154653 8.22722758 22.5 7.3125 C19 6.3125 19 6.3125 16.1875 5.25 C2.47033996 1.21554116 -15.9445791 2.51568992 -28.875 8.75 C-32.0733543 10.56824251 -34.53318647 12.56105414 -37 15.3125 C-37.66 15.621875 -38.32 15.93125 -39 16.25 C-41.75473987 17.71345556 -43.07144443 19.87344443 -45 22.3125 C-45.9075 22.9725 -46.815 23.6325 -47.75 24.3125 C-57.66165464 32.39238049 -63.26504421 47.53552211 -64.55859375 59.8671875 C-65.02530235 65.7884354 -65.39665858 71.48296854 -64 77.3125 C-63.74442165 79.2932322 -63.48985939 81.27418588 -63.2578125 83.2578125 C-63.01414978 85.19973054 -62.69675268 87.1319839 -62.375 89.0625 C-62.03229244 92.03263219 -62.19042968 93.53337802 -63 96.3125 C-63.64964023 94.41796779 -64.29455115 92.52181351 -64.9375 90.625 C-65.47697266 89.04138672 -65.47697266 89.04138672 -66.02734375 87.42578125 C-71.28585532 70.59432053 -68.26884885 51.48779981 -60.31738281 36.07495117 C-51.88144174 20.60213624 -38.50298253 8.58577198 -22 2.3125 C-14.70092823 0.29304759 -7.53823689 -0.02391573 0 0 Z " fill="#61B0E1" transform="translate(508,191.6875)"/>
<path d="M0 0 C3.21189164 2.6703287 6.3539734 5.40664678 9.453125 8.20703125 C10.38898438 9.04427734 10.38898438 9.04427734 11.34375 9.8984375 C11.70984375 10.33027344 12.0759375 10.76210938 12.453125 11.20703125 C12.140625 13.39453125 12.140625 13.39453125 11.453125 15.20703125 C10.793125 15.20703125 10.133125 15.20703125 9.453125 15.20703125 C9.288125 14.52640625 9.123125 13.84578125 8.953125 13.14453125 C7.02822166 9.37492888 4.40101664 7.38051724 1.1328125 4.7578125 C0.57851563 4.24605469 0.02421875 3.73429688 -0.546875 3.20703125 C-0.546875 2.54703125 -0.546875 1.88703125 -0.546875 1.20703125 C-1.51625 1.08328125 -2.485625 0.95953125 -3.484375 0.83203125 C-4.495 0.62578125 -5.505625 0.41953125 -6.546875 0.20703125 C-7.041875 -0.78296875 -7.041875 -0.78296875 -7.546875 -1.79296875 C-9.42679981 -2.87998049 -11.35172645 -3.89001087 -13.296875 -4.85546875 C-14.86695313 -5.64630859 -14.86695313 -5.64630859 -16.46875 -6.453125 C-19.21807876 -7.64985059 -21.59597973 -8.35033446 -24.546875 -8.79296875 C-24.546875 -9.45296875 -24.546875 -10.11296875 -24.546875 -10.79296875 C-25.81144531 -10.88384766 -25.81144531 -10.88384766 -27.1015625 -10.9765625 C-28.74511719 -11.10224609 -28.74511719 -11.10224609 -30.421875 -11.23046875 C-31.51242187 -11.31167969 -32.60296875 -11.39289062 -33.7265625 -11.4765625 C-36.55873826 -11.79429967 -38.04353472 -12.54129861 -40.546875 -13.79296875 C-44.02069158 -14.03244516 -47.50321314 -13.97815876 -50.984375 -13.98046875 C-51.95181641 -13.99271484 -52.91925781 -14.00496094 -53.91601562 -14.01757812 C-54.84478516 -14.01951172 -55.77355469 -14.02144531 -56.73046875 -14.0234375 C-57.58181396 -14.02754639 -58.43315918 -14.03165527 -59.31030273 -14.03588867 C-61.83230598 -13.93606951 -61.83230598 -13.93606951 -64.546875 -11.79296875 C-66.546875 -11.79296875 -68.546875 -11.79296875 -70.546875 -11.79296875 C-72.22923971 -11.16697258 -73.8992712 -10.50544607 -75.546875 -9.79296875 C-76.536875 -9.79296875 -77.526875 -9.79296875 -78.546875 -9.79296875 C-78.546875 -9.13296875 -78.546875 -8.47296875 -78.546875 -7.79296875 C-79.13855469 -7.70660156 -79.73023438 -7.62023437 -80.33984375 -7.53125 C-86.06671688 -6.51293161 -88.52224005 -5.13533803 -92.546875 -0.79296875 C-94.3671875 0.12890625 -94.3671875 0.12890625 -96.296875 0.89453125 C-99.63118896 1.82408805 -99.63118896 1.82408805 -100.546875 4.20703125 C-101.248125 4.59890625 -101.949375 4.99078125 -102.671875 5.39453125 C-109.39060344 9.63025135 -114.42914202 16.21819479 -119.546875 22.20703125 C-120.1328125 20.3046875 -120.1328125 20.3046875 -120.546875 18.20703125 C-119.171875 16.64453125 -119.171875 16.64453125 -117.546875 15.20703125 C-117.216875 14.21703125 -116.886875 13.22703125 -116.546875 12.20703125 C-113.06104708 8.99075769 -109.27867354 6.13195443 -105.546875 3.20703125 C-104.88171875 2.665625 -104.2165625 2.12421875 -103.53125 1.56640625 C-73.81396946 -21.94900705 -30.11365683 -24.28917098 0 0 Z M-121.546875 22.20703125 C-121.216875 22.86703125 -120.886875 23.52703125 -120.546875 24.20703125 C-121.083125 24.97015625 -121.619375 25.73328125 -122.171875 26.51953125 C-124.83211973 30.4578295 -126.9294919 34.68320929 -129.08203125 38.9140625 C-130.546875 41.20703125 -130.546875 41.20703125 -133.546875 42.20703125 C-132.0989224 35.69124454 -129.35453387 29.69989799 -125.546875 24.20703125 C-123.3515625 22.8828125 -123.3515625 22.8828125 -121.546875 22.20703125 Z " fill="#4A8EC3" transform="translate(712.546875,551.79296875)"/>
<path d="M0 0 C-3.09720845 0.87840996 -4.90645403 0.99435406 -8 0 C-8 -0.66 -8 -1.32 -8 -2 C-9.0828125 -2.185625 -9.0828125 -2.185625 -10.1875 -2.375 C-13 -3 -13 -3 -15.375 -3.96875 C-23.98660132 -7.35187909 -33.19378678 -7.20461616 -42.3125 -7.25 C-43.86964722 -7.26377686 -43.86964722 -7.26377686 -45.45825195 -7.27783203 C-51.07793037 -7.25519212 -55.67927251 -6.77803205 -61 -5 C-62.80826133 -4.68311415 -64.62084192 -4.38953565 -66.4375 -4.125 C-72.35718804 -3.09761612 -77.65269279 -1.34730721 -82 3 C-82.886875 3.268125 -83.77375 3.53625 -84.6875 3.8125 C-88.19319569 5.06925883 -90.50345048 6.68320429 -93.38671875 8.9765625 C-95 10 -95 10 -98 10 C-98.2165625 10.54785156 -98.433125 11.09570312 -98.65625 11.66015625 C-100.76542019 15.33281016 -103.93887646 17.9832751 -107.01171875 20.84570312 C-109.97378144 23.69261861 -111.79687222 26.05402733 -113 30 C-113.99 30 -114.98 30 -116 30 C-116.2165625 30.928125 -116.2165625 30.928125 -116.4375 31.875 C-117 34 -117 34 -118 36 C-118.66 36 -119.32 36 -120 36 C-120 37.32 -120 38.64 -120 40 C-120.66 40 -121.32 40 -122 40 C-122.12375 40.66 -122.2475 41.32 -122.375 42 C-123.14520538 45.69698583 -124.06950663 49.34005942 -125 53 C-125.99 53 -126.98 53 -128 53 C-125.30624935 38.0347186 -115.72987966 23.12929471 -104.0078125 13.63671875 C-101.95348697 12.00581408 -101.95348697 12.00581408 -99.9921875 10.08203125 C-73.05936514 -15.60850226 -31.77122094 -16.87121404 0 0 Z " fill="#69B9E7" transform="translate(397,293)"/>
<path d="M0 0 C13.28648945 0.42859643 23.52618324 9.31242514 32.484375 18.56640625 C38.16119822 25.10999275 41.82293815 31.97051249 45 40 C45.32871094 40.82757813 45.65742187 41.65515625 45.99609375 42.5078125 C47.86408825 47.63809404 48.71711057 52.55853867 49 58 C49.06445312 59.02867187 49.12890625 60.05734375 49.1953125 61.1171875 C49.5153548 70.52643114 47.971315 79.10774343 45 88 C44.34 88.66 43.68 89.32 43 90 C42.8371487 86.09156884 42.92818645 83.25773399 43.98828125 79.453125 C45.3440842 74.23738484 45.34197615 69.11333964 45.3125 63.75 C45.30903564 62.73236572 45.30557129 61.71473145 45.30200195 60.66625977 C45.16087809 50.91623847 43.72143699 42.6217545 39 34 C38.30028027 32.01132287 37.62335603 30.01391949 37 28 C36.01 28 35.02 28 34 28 C34 26.68 34 25.36 34 24 C32.68 23.34 31.36 22.68 30 22 C30 21.34 30 20.68 30 20 C29.01 19.67 28.02 19.34 27 19 C26.67 18.01 26.34 17.02 26 16 C24.15028304 14.94978897 24.15028304 14.94978897 22 14 C18.19565217 11.39130435 18.19565217 11.39130435 17 9 C16.01 8.67 15.02 8.34 14 8 C14 7.34 14 6.68 14 6 C10.74378744 4.88812254 7.51778609 3.87351766 4.1875 3 C3.135625 2.67 2.08375 2.34 1 2 C0.67 1.34 0.34 0.68 0 0 Z " fill="#6BB4E3" transform="translate(526,196)"/>
<path d="M0 0 C0.99 0.495 0.99 0.495 2 1 C-14.96327468 17.39954047 -35.67424147 24.52641511 -58.8840332 24.35351562 C-75.52974159 23.9515494 -91.60541691 19.14818604 -105 9 C-105.33 8.34 -105.66 7.68 -106 7 C-103.83125748 7.50603992 -102.00032373 7.99983813 -100 9 C-100 9.66 -100 10.32 -100 11 C-97.03 11.495 -97.03 11.495 -94 12 C-94 12.66 -94 13.32 -94 14 C-92.35 14 -90.7 14 -89 14 C-89 14.66 -89 15.32 -89 16 C-88.24074219 16.12117188 -87.48148437 16.24234375 -86.69921875 16.3671875 C-85.70535156 16.53476562 -84.71148437 16.70234375 -83.6875 16.875 C-82.70136719 17.03742188 -81.71523438 17.19984375 -80.69921875 17.3671875 C-78 18 -78 18 -75 20 C-68.83152124 21.07811908 -62.74955281 21.15189908 -56.5 21.125 C-55.60152344 21.12886719 -54.70304687 21.13273437 -53.77734375 21.13671875 C-48.42136214 21.12892256 -43.30269274 20.73909213 -38 20 C-37.01 20 -36.02 20 -35 20 C-34.67 19.34 -34.34 18.68 -34 18 C-32.33158998 17.499477 -30.65983702 17.00727336 -28.97265625 16.57421875 C-26.98239141 15.99487433 -25.1938835 15.24051768 -23.3125 14.375 C-20 13 -20 13 -16 13 C-16 12.34 -16 11.68 -16 11 C-14.35666496 9.96210419 -12.68756133 8.96432076 -11 8 C-10.34 7.34 -9.68 6.68 -9 6 C-8.030625 5.525625 -7.06125 5.05125 -6.0625 4.5625 C-3.43292134 3.22087824 -1.88632119 2.20070805 0 0 Z " fill="#205386" transform="translate(411,438)"/>
<path d="M0 0 C-1.32 0.33 -2.64 0.66 -4 1 C-4 1.66 -4 2.32 -4 3 C-4.59167969 3.08636719 -5.18335938 3.17273438 -5.79296875 3.26171875 C-11.51984188 4.28003714 -13.97536505 5.65763072 -18 10 C-19.8203125 10.921875 -19.8203125 10.921875 -21.75 11.6875 C-25.08431396 12.6170568 -25.08431396 12.6170568 -26 15 C-26.70125 15.391875 -27.4025 15.78375 -28.125 16.1875 C-34.84372844 20.4232201 -39.88226702 27.01116354 -45 33 C-45.5859375 31.09765625 -45.5859375 31.09765625 -46 29 C-44.625 27.4375 -44.625 27.4375 -43 26 C-42.67 25.01 -42.34 24.02 -42 23 C-38.51428228 19.78382812 -34.73308712 16.92307765 -31 14 C-30.31164062 13.44699219 -29.62328125 12.89398437 -28.9140625 12.32421875 C-8.03525905 -4.01762952 -8.03525905 -4.01762952 0 0 Z M-47 33 C-46.67 33.66 -46.34 34.32 -46 35 C-46.53625 35.763125 -47.0725 36.52625 -47.625 37.3125 C-50.28524473 41.25079825 -52.3826169 45.47617804 -54.53515625 49.70703125 C-56 52 -56 52 -59 53 C-57.5520474 46.48421329 -54.80765887 40.49286674 -51 35 C-48.8046875 33.67578125 -48.8046875 33.67578125 -47 33 Z " fill="#397FB9" transform="translate(638,541)"/>
<path d="M0 0 C1.03833984 -0.020625 2.07667969 -0.04125 3.14648438 -0.0625 C10.04073483 -0.09707931 15.84110593 0.86205829 22.3125 3.25 C22.3125 3.58 22.3125 3.91 22.3125 4.25 C16.78006554 4.33923281 11.45682799 4.14468652 5.96484375 3.46875 C-0.74696875 2.91519845 -7.0108359 3.38482527 -13.625 4.5 C-14.80751343 4.69589722 -14.80751343 4.69589722 -16.01391602 4.89575195 C-21.73782941 5.91553303 -26.48911422 7.60520724 -31.6875 10.25 C-32.6775 10.25 -33.6675 10.25 -34.6875 10.25 C-34.6875 10.91 -34.6875 11.57 -34.6875 12.25 C-36.0075 11.92 -37.3275 11.59 -38.6875 11.25 C-25.86085604 3.20579889 -15.02773968 0.07326138 0 0 Z " fill="#66B6E3" transform="translate(507.6875,191.75)"/>
<path d="M0 0 C3.03716141 1.33520492 4.89210626 2.7188227 7.015625 5.2578125 C7.54414063 5.88300781 8.07265625 6.50820313 8.6171875 7.15234375 C9.15601563 7.80332031 9.69484375 8.45429688 10.25 9.125 C10.80429687 9.78371094 11.35859375 10.44242187 11.9296875 11.12109375 C13.2924831 12.74235058 14.64705703 14.37051208 16 16 C14.125 20.75 14.125 20.75 13 23 C9.92134612 21.62038248 7.75701256 19.99876869 5.3125 17.6875 C0.10266667 13.01325701 -5.77986502 10.09605818 -12 7 C-9.21176345 5.9673198 -8.1322726 5.95490707 -5.25 6.9375 C-4.5075 7.288125 -3.765 7.63875 -3 8 C-3 8.66 -3 9.32 -3 10 C-0.03 10.33 2.94 10.66 6 11 C4.34703566 6.90694544 2.86453858 3.41016497 0 0 Z " fill="#28558A" transform="translate(427,429)"/>
<path d="M0 0 C0.66 0.33 1.32 0.66 2 1 C1.50628906 1.49628906 1.01257813 1.99257813 0.50390625 2.50390625 C-0.45708984 3.52291016 -0.45708984 3.52291016 -1.4375 4.5625 C-2.07558594 5.22378906 -2.71367188 5.88507812 -3.37109375 6.56640625 C-6.06161663 10.58606034 -6.30370285 14.34556277 -5.44140625 19.04296875 C-5.15136719 20.08066406 -4.86132812 21.11835937 -4.5625 22.1875 C-0.3653099 40.3108508 -2.57657972 57.91013131 -12 74 C-13.88517546 76.77005374 -15.86119931 79.42130413 -18 82 C-18.33 81.34 -18.66 80.68 -19 80 C-18.14453125 78.30078125 -18.14453125 78.30078125 -16.8125 76.3125 C-16.11447266 75.23742187 -16.11447266 75.23742187 -15.40234375 74.140625 C-14.93957031 73.43421875 -14.47679687 72.7278125 -14 72 C-8.56094337 63.4339596 -6.39785617 55.11519183 -6 45 C-5.97276855 44.32727051 -5.94553711 43.65454102 -5.91748047 42.96142578 C-5.59573392 33.81289662 -5.83280114 25.56847613 -8.44140625 16.69921875 C-9.07593237 13.63308202 -9.02003268 11.95620581 -8 9 C-6.15234375 6.54296875 -6.15234375 6.54296875 -3.9375 4.1875 C-3.20402344 3.39730469 -2.47054687 2.60710938 -1.71484375 1.79296875 C-1.14894531 1.20128906 -0.58304688 0.60960937 0 0 Z " fill="#133E6E" transform="translate(578,695)"/>
<path d="M0 0 C0.66 0.66 1.32 1.32 2 2 C-2.31134782 7.08766768 -6.80698266 11.88737123 -11.59375 16.53125 C-13.498903 18.4858875 -15.26508568 20.45907668 -17.03515625 22.53125 C-22.04311784 28.30313793 -27.51547558 33.62230187 -32.9375 39 C-34.01390654 40.07137887 -35.09008014 41.14299182 -36.16601562 42.21484375 C-38.77466745 44.81259638 -41.38644471 47.40717962 -44 50 C-44.66 49.67 -45.32 49.34 -46 49 C-45.15115234 48.16855469 -45.15115234 48.16855469 -44.28515625 47.3203125 C-43.55167969 46.59585938 -42.81820312 45.87140625 -42.0625 45.125 C-41.33160156 44.40570312 -40.60070312 43.68640625 -39.84765625 42.9453125 C-37.94332001 41.12972808 -37.94332001 41.12972808 -37 39 C-36.34 39 -35.68 39 -35 39 C-34.731875 38.195625 -34.46375 37.39125 -34.1875 36.5625 C-33.795625 35.716875 -33.40375 34.87125 -33 34 C-31.515 33.505 -31.515 33.505 -30 33 C-28.66606585 31.39950013 -28.66606585 31.39950013 -27.5 29.5 C-25.33333333 26.11111111 -25.33333333 26.11111111 -22 25 C-21.731875 24.4225 -21.46375 23.845 -21.1875 23.25 C-19.82718414 20.67255943 -18.10188434 19.46021415 -15.84375 17.68359375 C-12.58458353 14.70753284 -9.9717085 11.17799724 -7.24609375 7.71875 C-4.97499565 4.96973387 -2.55796648 2.48154217 0 0 Z " fill="#1B5999" transform="translate(721,566)"/>
<path d="M0 0 C0.66 0.33 1.32 0.66 2 1 C1.01 1.33 0.02 1.66 -1 2 C-1.70074561 3.31574231 -2.36376266 4.65188121 -3 6 C-4.49291992 7.70410156 -4.49291992 7.70410156 -6.23046875 9.390625 C-7.18264282 10.32539673 -7.18264282 10.32539673 -8.15405273 11.27905273 C-8.82509033 11.92946533 -9.49612793 12.57987793 -10.1875 13.25 C-14.79534659 17.77960937 -19.29525774 22.30068419 -23.4609375 27.24609375 C-25.23609235 29.26904941 -27.13269275 31.12440082 -29.0625 33 C-32.82889966 36.70032247 -35.96991494 40.68442431 -39 45 C-40.33897583 44.04956626 -41.67105427 43.08940853 -43 42.125 C-43.7425 41.59132813 -44.485 41.05765625 -45.25 40.5078125 C-45.8275 40.01023437 -46.405 39.51265625 -47 39 C-47 38.34 -47 37.68 -47 37 C-46.34 37 -45.68 37 -45 37 C-45 37.66 -45 38.32 -45 39 C-43.68 39.33 -42.36 39.66 -41 40 C-41 40.66 -41 41.32 -41 42 C-37.73466976 38.82537338 -34.83081372 35.56134629 -32 32 C-29.875 29.6875 -29.875 29.6875 -28 28 C-27.34 28 -26.68 28 -26 28 C-25.67 27.01 -25.34 26.02 -25 25 C-24.01 24.34 -23.02 23.68 -22 23 C-21.67 22.01 -21.34 21.02 -21 20 C-19.52880595 18.75765835 -18.05398802 17.51882619 -16.546875 16.3203125 C-14.36983178 14.46212914 -12.74950836 12.25743014 -11 10 C-7.5443766 6.36250168 -3.88376292 3.16120238 0 0 Z " fill="#134374" transform="translate(645,648)"/>
<path d="M0 0 C0.33 0.99 0.66 1.98 1 3 C0.525625 3.433125 0.05125 3.86625 -0.4375 4.3125 C-2.23686957 6.02309613 -2.23686957 6.02309613 -3 9 C-4.12373488 10.12373488 -5.25147196 11.24373627 -6.3984375 12.34375 C-10.8763733 16.97459092 -15.32318816 22.10598708 -18 28 C-18.66666667 29.33333333 -19.33333333 30.66666667 -20 32 C-18.68 32.66 -17.36 33.32 -16 34 C-16 34.66 -16 35.32 -16 36 C-15.21625 36.2475 -14.4325 36.495 -13.625 36.75 C-10.67682892 38.15389099 -10.0975223 39.00675737 -9 42 C-12.12688787 40.58378621 -14.53900915 38.87668024 -17.125 36.625 C-17.80820312 36.03976562 -18.49140625 35.45453125 -19.1953125 34.8515625 C-21.03347093 32.96565969 -22.09383681 31.46677756 -23 29 C-22.125 26.75 -22.125 26.75 -21 25 C-20.34 25 -19.68 25 -19 25 C-18.72800781 24.41863281 -18.45601563 23.83726562 -18.17578125 23.23828125 C-17.01105163 21.02103848 -15.71599838 19.16769184 -14.1875 17.1875 C-12.20639235 14.60051962 -10.28784538 11.9943297 -8.4375 9.3125 C-6.24843692 6.21664056 -3.76028337 3.60693429 -1 1 C-0.67 0.67 -0.34 0.34 0 0 Z " fill="#1060AA" transform="translate(314,403)"/>
<path d="M0 0 C0.66 0 1.32 0 2 0 C2.70532412 6.52032967 1.64350453 12.07509235 -0.3125 18.25 C-0.52543701 18.92289062 -0.73837402 19.59578125 -0.95776367 20.2890625 C-2.31967091 24.39558055 -3.99169953 28.1741876 -6 32 C-6.61060815 33.21487491 -7.2185614 34.43108688 -7.82421875 35.6484375 C-9.54947917 39.09895833 -11.27473958 42.54947917 -13 46 C-13.99 45.01 -14.98 44.02 -16 43 C-15.67 42.01 -15.34 41.02 -15 40 C-14.34 40 -13.68 40 -13 40 C-12.9175 39.2575 -12.835 38.515 -12.75 37.75 C-12 35 -12 35 -10.125 33.3125 C-6.87180968 29.77226347 -6.21438635 25.57011667 -5 21 C-4.34370484 18.99657266 -3.68239354 16.99468882 -3 15 C-2.34 15 -1.68 15 -1 15 C-1.020625 13.989375 -1.04125 12.97875 -1.0625 11.9375 C-1.00310443 8.19557916 -0.59041954 4.69012214 0 1 C0 0.67 0 0.34 0 0 Z " fill="#316AA0" transform="translate(440,381)"/>
<path d="M0 0 C0 3.59857954 -0.95830515 5.09451118 -3 8 C-3.66 8 -4.32 8 -5 8 C-5.23122559 8.72018311 -5.46245117 9.44036621 -5.70068359 10.18237305 C-7.25119109 13.54471936 -9.14964432 15.4903134 -11.7890625 18.08203125 C-12.25234955 18.54107346 -12.7156366 19.00011566 -13.19296265 19.47306824 C-14.66337336 20.92678699 -16.14390105 22.36968043 -17.625 23.8125 C-18.62829278 24.80073367 -19.63090457 25.78965921 -20.6328125 26.77929688 C-23.08192792 29.19308851 -25.53777212 31.59959731 -28 34 C-28.99 33.67 -29.98 33.34 -31 33 C-29.91332031 31.93072266 -29.91332031 31.93072266 -28.8046875 30.83984375 C-24.10115426 26.18837314 -19.47660746 21.55823844 -15.24609375 16.46484375 C-13.3008497 14.17811485 -11.12230539 12.12230539 -9 10 C-5.97504021 6.68889537 -2.98398253 3.3480414 0 0 Z " fill="#11304A" transform="translate(663,630)"/>
<path d="M0 0 C5.18037738 7.77056607 5.15903116 18.19912402 3.63085938 27.16601562 C0.97849834 40.02150166 0.97849834 40.02150166 -2 43 C-2.16038346 39.15079705 -2.11336894 36.37907741 -1 32.65625 C0.63910499 26.38489179 0.20997748 19.93214172 0.125 13.5 C0.11597656 12.200625 0.10695313 10.90125 0.09765625 9.5625 C0.07421733 6.37480701 0.0414044 3.1875018 0 0 Z " fill="#55A4D8" transform="translate(571,243)"/>
<path d="M0 0 C-3.11292943 1.82211511 -5.29068089 2.22414697 -8.87890625 2.125 C-9.79994141 2.10953125 -10.72097656 2.0940625 -11.66992188 2.078125 C-12.62447266 2.05234375 -13.57902344 2.0265625 -14.5625 2 C-16.45940675 1.94897359 -18.35658165 1.90691015 -20.25390625 1.875 C-21.09252197 1.85179687 -21.9311377 1.82859375 -22.79516602 1.8046875 C-25.29162848 1.84838941 -25.29162848 1.84838941 -28 4 C-30 4 -32 4 -34 4 C-36.30652507 4.48453044 -38.57541992 5.04919166 -40.8515625 5.66015625 C-43.21444318 6.03392101 -44.74254178 5.73035413 -47 5 C-32.41603093 -0.32676884 -15.46270863 -3.84262143 0 0 Z " fill="#508FBE" transform="translate(676,536)"/>
<path d="M0 0 C0.66 0.33 1.32 0.66 2 1 C-9.83523705 12.44192101 -24.65437724 20.57708689 -41 23 C-39.6875 21.5 -39.6875 21.5 -38 20 C-37.01 20 -36.02 20 -35 20 C-34.67 19.34 -34.34 18.68 -34 18 C-32.33158998 17.499477 -30.65983702 17.00727336 -28.97265625 16.57421875 C-26.98239141 15.99487433 -25.1938835 15.24051768 -23.3125 14.375 C-20 13 -20 13 -16 13 C-16 12.34 -16 11.68 -16 11 C-14.35666496 9.96210419 -12.68756133 8.96432076 -11 8 C-10.34 7.34 -9.68 6.68 -9 6 C-8.030625 5.525625 -7.06125 5.05125 -6.0625 4.5625 C-3.43292134 3.22087824 -1.88632119 2.20070805 0 0 Z " fill="#235688" transform="translate(411,438)"/>
<path d="M0 0 C18.71618233 -0.95274684 35.35140773 2.15923294 52 11 C48.90279155 11.87840996 47.09354597 11.99435406 44 11 C44 10.34 44 9.68 44 9 C42.9171875 8.814375 42.9171875 8.814375 41.8125 8.625 C39 8 39 8 36.83203125 7.05859375 C33.25313216 5.72082595 29.62510851 5.08301048 25.875 4.4375 C18.34285714 3.11428571 18.34285714 3.11428571 15 2 C12.43365139 1.77281504 9.88321893 1.58391816 7.3125 1.4375 C6.61060547 1.39431641 5.90871094 1.35113281 5.18554688 1.30664062 C3.45724794 1.2008264 1.7286489 1.09993419 0 1 C0 0.67 0 0.34 0 0 Z " fill="#8BCDEF" transform="translate(345,282)"/>
<path d="M0 0 C1.44108114 2.1616217 2.71797969 4.2411241 3.953125 6.51171875 C10.75494232 19.64758592 10.75494232 19.64758592 21 30 C20.01 30.66 19.02 31.32 18 32 C12.25725045 26.03806154 7.27568417 20.66276119 4 13 C2.62727956 10.39495099 1.24517706 7.79524278 -0.14453125 5.19921875 C-1 3 -1 3 0 0 Z " fill="#4995CF" transform="translate(272,401)"/>
<path d="M0 0 C7.85499207 0.25338684 12.60421484 2.54293721 19 7 C19.845625 7.57492188 20.69125 8.14984375 21.5625 8.7421875 C26.06596462 11.98987833 29.01622095 14.23786559 30 20 C29.01 19.67 28.02 19.34 27 19 C26.67 18.01 26.34 17.02 26 16 C24.15028304 14.94978897 24.15028304 14.94978897 22 14 C18.19565217 11.39130435 18.19565217 11.39130435 17 9 C16.01 8.67 15.02 8.34 14 8 C14 7.34 14 6.68 14 6 C10.74378744 4.88812254 7.51778609 3.87351766 4.1875 3 C3.135625 2.67 2.08375 2.34 1 2 C0.67 1.34 0.34 0.68 0 0 Z " fill="#6FB8E2" transform="translate(526,196)"/>
<path d="M0 0 C2.08995502 3.44227886 2.08995502 3.44227886 1.6875 5.9375 C1.460625 6.618125 1.23375 7.29875 1 8 C0.7834375 9.11375 0.7834375 9.11375 0.5625 10.25 C0 13 0 13 -0.99609375 16.359375 C-2.45605131 22.16212697 -2.46131153 28.04583178 -2.625 34 C-2.66367187 35.15628906 -2.70234375 36.31257812 -2.7421875 37.50390625 C-2.83580332 40.3357848 -2.92153675 43.16766794 -3 46 C-3.33 46 -3.66 46 -4 46 C-6.58165045 30.5100973 -5.23668041 14.7993142 0 0 Z " fill="#4476A4" transform="translate(578,594)"/>
<path d="M0 0 C0 3 0 3 -1.3125 4.38671875 C-2.875 5.59114583 -4.4375 6.79557292 -6 8 C-5.8125 5.6875 -5.8125 5.6875 -5 3 C-2.4375 1.1875 -2.4375 1.1875 0 0 Z M-7 8 C-6.67 8.66 -6.34 9.32 -6 10 C-6.53625 10.763125 -7.0725 11.52625 -7.625 12.3125 C-10.28524473 16.25079825 -12.3826169 20.47617804 -14.53515625 24.70703125 C-16 27 -16 27 -19 28 C-17.5520474 21.48421329 -14.80765887 15.49286674 -11 10 C-8.8046875 8.67578125 -8.8046875 8.67578125 -7 8 Z " fill="#3777AF" transform="translate(598,566)"/>
<path d="M0 0 C0.33 0.66 0.66 1.32 1 2 C-0.25 5.0625 -0.25 5.0625 -2 8 C-2.99 8.33 -3.98 8.66 -5 9 C-6.14893162 10.11513951 -7.29158348 11.23779708 -8.39453125 12.3984375 C-11.17931339 15.17644402 -14.21590739 17.67849847 -17.20703125 20.23046875 C-18.09455078 21.10638672 -18.09455078 21.10638672 -19 22 C-19 22.66 -19 23.32 -19 24 C-20.76957906 26.3283935 -21.81583516 26.95288806 -24.6875 27.6875 C-25.450625 27.790625 -26.21375 27.89375 -27 28 C-21.75541414 21.63409696 -15.97902678 15.86429388 -10.125 10.0625 C-9.14039081 9.08291763 -8.156014 8.10310163 -7.171875 7.12304688 C-4.78351797 4.74639748 -2.39284788 2.37212644 0 0 Z " fill="#556576" transform="translate(725,312)"/>
<path d="M0 0 C0.66 0.66 1.32 1.32 2 2 C1.36191406 2.54269531 0.72382812 3.08539063 0.06640625 3.64453125 C-0.75988281 4.35996094 -1.58617187 5.07539063 -2.4375 5.8125 C-3.26121094 6.52019531 -4.08492187 7.22789062 -4.93359375 7.95703125 C-7.22164759 9.91109686 -7.22164759 9.91109686 -8 13 C-9.5234375 14.5 -9.5234375 14.5 -11.375 16 C-13.70844981 17.90647814 -15.89839615 19.83969213 -18 22 C-20.33333333 24.33333333 -22.66666667 26.66666667 -25 29 C-25.33 28.01 -25.66 27.02 -26 26 C-17.42 17.42 -8.84 8.84 0 0 Z " fill="#4F5F70" transform="translate(679,358)"/>
<path d="M0 0 C0.99 0.495 0.99 0.495 2 1 C1.01 1.495 1.01 1.495 0 2 C0 1.34 0 0.68 0 0 Z M0 2 C-2 5 -2 5 -3.875 5.875 C-6.7083242 7.37499516 -8.01664813 9.49164322 -10 12 C-10.969375 12.763125 -11.93875 13.52625 -12.9375 14.3125 C-16.60787466 17.22638523 -18.73200002 20.95573454 -21 25 C-21.33 24.34 -21.66 23.68 -22 23 C-18.62937248 14.64670572 -10.22427328 0.83151163 0 2 Z " fill="#4FAEE7" transform="translate(473,202)"/>
<path d="M0 0 C0.33 0.99 0.66 1.98 1 3 C0.2575 3.61875 -0.485 4.2375 -1.25 4.875 C-4.431987 7.99406636 -5.59959957 11.6368713 -7.0078125 15.79296875 C-8 18 -8 18 -11 20 C-11.72640955 22.31543043 -12.38431458 24.65269935 -13 27 C-13.92840862 29.37157845 -14.9563312 31.67546495 -16 34 C-17.97945435 28.9771346 -15.41756816 24.3610811 -13.59375 19.6171875 C-11.35486156 14.53578874 -8.46728397 10.31238507 -5 6 C-4.48566406 5.35804688 -3.97132813 4.71609375 -3.44140625 4.0546875 C-2.31658001 2.68450256 -1.1623682 1.3384846 0 0 Z " fill="#184C7B" transform="translate(460,689)"/>
<path d="M0 0 C0.33 0.66 0.66 1.32 1 2 C0.12946988 4.01962988 -0.75356029 6.03441492 -1.68359375 8.02734375 C-3.30889706 11.69753906 -4.72418187 15.42697809 -6.125 19.1875 C-6.37838135 19.86441895 -6.6317627 20.54133789 -6.89282227 21.23876953 C-8.3404336 25.13504577 -9.70936481 29.04819796 -11 33 C-11.33 33 -11.66 33 -12 33 C-12.51401239 20.71043093 -6.41394845 10.0922647 0 0 Z " fill="#6CB7E2" transform="translate(453,219)"/>
<path d="M0 0 C0 0.99 0 1.98 0 3 C-2 4.6875 -2 4.6875 -4 6 C-2.25 1.125 -2.25 1.125 0 0 Z M-6 6 C-5.34 6.33 -4.68 6.66 -4 7 C-4.33 7.66 -4.66 8.32 -5 9 C-5.66 9 -6.32 9 -7 9 C-7.226875 9.721875 -7.45375 10.44375 -7.6875 11.1875 C-9.27843851 14.59665395 -11.29187822 16.38214894 -14 19 C-15.03974624 20.03577079 -16.07744231 21.07360291 -17.11328125 22.11328125 C-20.07552083 25.07552083 -23.03776042 28.03776042 -26 31 C-26 28 -26 28 -24.64453125 26.421875 C-24.03996094 25.87015625 -23.43539063 25.3184375 -22.8125 24.75 C-20.2675812 22.33387263 -18.15604637 19.96816875 -16.1875 17.0625 C-15.465625 16.051875 -14.74375 15.04125 -14 14 C-13.34 14 -12.68 14 -12 14 C-11.62875 12.8553125 -11.62875 12.8553125 -11.25 11.6875 C-9.89004442 8.7635955 -8.68414174 7.69995644 -6 6 Z " fill="#1B78C3" transform="translate(344,370)"/>
<path d="M0 0 C1.15234375 1.70703125 1.15234375 1.70703125 2 4 C-0.59541531 10.73876891 -6.82524707 20.63971566 -13.2109375 24.25 C-13.80132813 24.4975 -14.39171875 24.745 -15 25 C-15 24.01 -15 23.02 -15 22 C-14.01 22 -13.02 22 -12 22 C-12 21.01 -12 20.02 -12 19 C-11.34 19 -10.68 19 -10 19 C-10 18.01 -10 17.02 -10 16 C-9.34 16 -8.68 16 -8 16 C-7.731875 15.319375 -7.46375 14.63875 -7.1875 13.9375 C-5.83946694 10.60289191 -4.42463702 7.30256763 -3 4 C-2.34 4 -1.68 4 -1 4 C-0.67 2.68 -0.34 1.36 0 0 Z " fill="#3E8BC7" transform="translate(567,284)"/>
<path d="M0 0 C-3.26438816 3.26438816 -6.59734612 3.12705844 -11.0625 3.1328125 C-12.02414062 3.13410156 -12.98578125 3.13539063 -13.9765625 3.13671875 C-14.97429687 3.13285156 -15.97203125 3.12898438 -17 3.125 C-17.99773437 3.12886719 -18.99546875 3.13273437 -20.0234375 3.13671875 C-20.98507812 3.13542969 -21.94671875 3.13414062 -22.9375 3.1328125 C-23.81277344 3.13168457 -24.68804687 3.13055664 -25.58984375 3.12939453 C-27.86369448 3.00731786 -29.82013036 2.63663826 -32 2 C-32 1.34 -32 0.68 -32 0 C-30.89543457 0.00785522 -30.89543457 0.00785522 -29.76855469 0.01586914 C-26.42904515 0.03666867 -23.08954926 0.04966968 -19.75 0.0625 C-18.59113281 0.07087891 -17.43226563 0.07925781 -16.23828125 0.08789062 C-15.12324219 0.09111328 -14.00820313 0.09433594 -12.859375 0.09765625 C-11.83295898 0.10289307 -10.80654297 0.10812988 -9.74902344 0.11352539 C-7.06873803 0.10031277 -7.06873803 0.10031277 -4.82128906 -0.56860352 C-3 -1 -3 -1 0 0 Z " fill="#134A7D" transform="translate(372,459)"/>
<path d="M0 0 C4.2099309 0.79341006 8.35020527 1.81857969 12.5 2.875 C19.64598848 4.67970979 26.81074436 6.37503126 34 8 C34 8.33 34 8.66 34 9 C21.82773712 8.43065222 10.96061842 6.45263088 0 1 C0 0.67 0 0.34 0 0 Z " fill="#6FA9D1" transform="translate(476,319)"/>
<path d="M0 0 C4.07328768 0.56680182 6.40620179 2.71591936 9.5 5.3125 C10.4384375 6.09238281 11.376875 6.87226562 12.34375 7.67578125 C17.00947867 11.75829384 17.00947867 11.75829384 19 14 C18.75 16.25 18.75 16.25 18 18 C17.34 18 16.68 18 16 18 C15.7525 16.9790625 15.7525 16.9790625 15.5 15.9375 C13.57509666 12.16789763 10.94789164 10.17348599 7.6796875 7.55078125 C7.12539063 7.03902344 6.57109375 6.52726563 6 6 C6 5.34 6 4.68 6 4 C3.03 3.505 3.03 3.505 0 3 C0 2.01 0 1.02 0 0 Z " fill="#3979B0" transform="translate(706,549)"/>
<path d="M0 0 C0.33 0.66 0.66 1.32 1 2 C0.01 3.485 0.01 3.485 -1 5 C-1.66 5 -2.32 5 -3 5 C-3.226875 5.556875 -3.45375 6.11375 -3.6875 6.6875 C-5.38572802 9.67961603 -7.50764196 11.61600535 -10 14 C-16.33669809 20.19423203 -16.33669809 20.19423203 -22 27 C-22.66 26.67 -23.32 26.34 -24 26 C-16 17.33333333 -8 8.66666667 0 0 Z " fill="#0E3153" transform="translate(631,664)"/>
<path d="M0 0 C0.33 1.32 0.66 2.64 1 4 C0.34 4 -0.32 4 -1 4 C-1 4.66 -1 5.32 -1 6 C-3.5 7.5 -3.5 7.5 -6 9 C-7.71108689 10.62102968 -9.37253306 12.29503463 -11 14 C-12.26818301 15.27347814 -13.53910709 16.54423141 -14.8125 17.8125 C-15.41707031 18.41707031 -16.02164062 19.02164063 -16.64453125 19.64453125 C-17.09183594 20.09183594 -17.53914063 20.53914062 -18 21 C-18.66 20.67 -19.32 20.34 -20 20 C-13.4 13.4 -6.8 6.8 0 0 Z M-21 21 C-20.67 21.99 -20.34 22.98 -20 24 C-20.99 24.33 -21.98 24.66 -23 25 C-22.34 23.68 -21.68 22.36 -21 21 Z " fill="#2A3E4C" transform="translate(337,644)"/>
<path d="M0 0 C0.66 0.33 1.32 0.66 2 1 C1.01 1.33 0.02 1.66 -1 2 C-1.69372452 3.31945766 -2.35655778 4.65530512 -3 6 C-4.18305972 7.3414596 -5.42049346 8.63604118 -6.6953125 9.890625 C-7.76845703 10.95410156 -7.76845703 10.95410156 -8.86328125 12.0390625 C-9.60964844 12.76867187 -10.35601563 13.49828125 -11.125 14.25 C-11.87910156 14.99507812 -12.63320313 15.74015625 -13.41015625 16.5078125 C-15.26900772 18.3431342 -17.13237005 20.1736191 -19 22 C-19 18.13748641 -17.8902236 17.41713684 -15.3125 14.625 C-14.57902344 13.82835937 -13.84554687 13.03171875 -13.08984375 12.2109375 C-8.93324318 7.81348718 -4.68734486 3.8152807 0 0 Z " fill="#13487C" transform="translate(645,648)"/>
<path d="M0 0 C0.99 0.33 1.98 0.66 3 1 C2.08476562 1.88042969 1.16953125 2.76085937 0.2265625 3.66796875 C-0.97435502 4.84073976 -2.17485398 6.01393949 -3.375 7.1875 C-3.97828125 7.76564453 -4.5815625 8.34378906 -5.203125 8.93945312 C-8.39722163 12.08031481 -10.74829984 14.56898144 -12 19 C-12.33 19 -12.66 19 -13 19 C-13.25 13.375 -13.25 13.375 -11 10 C-10.34 10 -9.68 10 -9 10 C-9 9.34 -9 8.68 -9 8 C-7.28515625 6.30859375 -7.28515625 6.30859375 -5.0625 4.4375 C-4.33160156 3.81746094 -3.60070312 3.19742187 -2.84765625 2.55859375 C-1.93306641 1.78708984 -1.93306641 1.78708984 -1 1 C-0.67 0.67 -0.34 0.34 0 0 Z " fill="#5696CB" transform="translate(446,311)"/>
<path d="M0 0 C3.79151583 -0.08829061 7.58276165 -0.14081946 11.375 -0.1875 C12.96634766 -0.22520508 12.96634766 -0.22520508 14.58984375 -0.26367188 C21.5846091 -0.32804088 27.43797471 0.55508971 34 3 C34 3.33 34 3.66 34 4 C32.60461746 4.05472088 31.20859103 4.09311538 29.8125 4.125 C29.03519531 4.14820313 28.25789062 4.17140625 27.45703125 4.1953125 C25 4 25 4 22.84375 3.03125 C18.53724999 1.46955219 14.23630138 1.52930563 9.6875 1.375 C8.75615234 1.33632812 7.82480469 1.29765625 6.86523438 1.2578125 C4.57701593 1.16393687 2.28879705 1.07825491 0 1 C0 0.67 0 0.34 0 0 Z " fill="#80C6EA" transform="translate(496,192)"/>
<path d="M0 0 C1.4606285 2.64738916 2 3.89448334 2 7 C2.99 7.33 3.98 7.66 5 8 C5 10.64 5 13.28 5 16 C5.66 16.33 6.32 16.66 7 17 C7.66 17.99 8.32 18.98 9 20 C8.67 20.66 8.34 21.32 8 22 C8.66 22 9.32 22 10 22 C9.67 23.32 9.34 24.64 9 26 C7.86894494 23.96168152 6.74541528 21.91918624 5.625 19.875 C4.99851562 18.73804688 4.37203125 17.60109375 3.7265625 16.4296875 C0.85864611 10.73278571 -0.25561277 6.3903192 0 0 Z " fill="#164168" transform="translate(443,746)"/>
<path d="M0 0 C2.7811159 1.96899941 3.05339134 3.24351661 3.80078125 6.65234375 C3.9849144 8.07904449 4.15504558 9.50760905 4.3125 10.9375 C4.41111328 11.65357422 4.50972656 12.36964844 4.61132812 13.10742188 C5.07529612 16.98820843 5.28847547 19.71728051 3 23 C2.77213542 20.94921875 2.54427083 18.8984375 2.31640625 16.84765625 C2.18113386 14.98859771 2.18113386 14.98859771 1 14 C0.76472227 11.65012738 0.58613583 9.29443961 0.4375 6.9375 C0.35371094 5.64714844 0.26992188 4.35679687 0.18359375 3.02734375 C0.12300781 2.02832031 0.06242187 1.02929688 0 0 Z " fill="#467FB3" transform="translate(439,349)"/>
<path d="M0 0 C1.40668945 0.01450195 1.40668945 0.01450195 2.84179688 0.02929688 C3.81826172 0.05443359 4.79472656 0.07957031 5.80078125 0.10546875 C6.78884766 0.11900391 7.77691406 0.13253906 8.79492188 0.14648438 C11.23492356 0.18184672 13.67382844 0.23119842 16.11328125 0.29296875 C16.44328125 0.95296875 16.77328125 1.61296875 17.11328125 2.29296875 C16.23027344 2.28136719 15.34726562 2.26976562 14.4375 2.2578125 C6.92757934 2.20134693 -0.42422004 2.44011175 -7.88671875 3.29296875 C-5.42854811 0.24399315 -3.85656876 -0.07011943 0 0 Z " fill="#50B0E8" transform="translate(499.88671875,192.70703125)"/>
<path d="M0 0 C3 1 3 1 4.31640625 3.40625 C6.80152726 9.57620561 8.79975422 15.45320481 10 22 C9.34 21.34 8.68 20.68 8 20 C8 19.01 8 18.02 8 17 C7.34 17 6.68 17 6 17 C5.73445312 16.15695313 5.46890625 15.31390625 5.1953125 14.4453125 C4.84210937 13.34960938 4.48890625 12.25390625 4.125 11.125 C3.77695312 10.03445312 3.42890625 8.94390625 3.0703125 7.8203125 C2.18824769 4.91477277 2.18824769 4.91477277 0 3 C0 2.01 0 1.02 0 0 Z " fill="#63ADDC" transform="translate(564,226)"/>
<path d="M0 0 C0.33 0.99 0.66 1.98 1 3 C-0.24354886 4.29787866 -1.4951264 5.58806759 -2.75 6.875 C-3.44609375 7.59429688 -4.1421875 8.31359375 -4.859375 9.0546875 C-6.85122217 10.86479679 -8.5427658 11.94848086 -11 13 C-11 11.68 -11 10.36 -11 9 C-8.59375 6.640625 -8.59375 6.640625 -5.5 4.25 C-3.96859375 3.05117188 -3.96859375 3.05117188 -2.40625 1.828125 C-1.6121875 1.22484375 -0.818125 0.6215625 0 0 Z " fill="#2D73B2" transform="translate(607,555)"/>
<path d="M0 0 C0.33 0.66 0.66 1.32 1 2 C-3.03523352 6.81123996 -7.04467233 11.13242719 -12 15 C-12.66 14.67 -13.32 14.34 -14 14 C-9.38 9.38 -4.76 4.76 0 0 Z " fill="#10365A" transform="translate(704,588)"/>
<path d="M0 0 C0.66 0.33 1.32 0.66 2 1 C2.12109311 8.07721931 1.85373239 14.97195301 1 22 C-1 20 -1 20 -1.23046875 17.4609375 C-1.1482659 11.55727825 -0.89817936 5.83816582 0 0 Z " fill="#2C557A" transform="translate(442,724)"/>
<path d="M0 0 C0.66 0.66 1.32 1.32 2 2 C0.8758824 3.29243468 -0.24932592 4.58392075 -1.375 5.875 C-2.00148438 6.59429688 -2.62796875 7.31359375 -3.2734375 8.0546875 C-4.47426834 9.4076598 -5.7208345 10.7208345 -7 12 C-7.99 11.67 -8.98 11.34 -10 11 C-6.83451967 7.11098131 -3.59634744 3.49359465 0 0 Z " fill="#2265A5" transform="translate(721,566)"/>
<path d="M0 0 C0.66 0.33 1.32 0.66 2 1 C-11.00288184 13 -11.00288184 13 -16 13 C-16 12.34 -16 11.68 -16 11 C-14.35666496 9.96210419 -12.68756133 8.96432076 -11 8 C-10.34 7.34 -9.68 6.68 -9 6 C-7.5459375 5.2884375 -7.5459375 5.2884375 -6.0625 4.5625 C-3.43292134 3.22087824 -1.88632119 2.20070805 0 0 Z " fill="#1B5085" transform="translate(411,438)"/>
<path d="M0 0 C0.66 0.33 1.32 0.66 2 1 C-1.51226251 6.48791018 -5.27797984 10.7319843 -11 14 C-11.99 14 -12.98 14 -14 14 C-12.88121617 12.82737096 -11.75476949 11.66204862 -10.625 10.5 C-9.99851562 9.8503125 -9.37203125 9.200625 -8.7265625 8.53125 C-7 7 -7 7 -5 7 C-4.731875 6.401875 -4.46375 5.80375 -4.1875 5.1875 C-3.01506533 3.02775192 -1.80630718 1.64209744 0 0 Z " fill="#15447B" transform="translate(586,675)"/>
<path d="M0 0 C1.4550293 0.01353516 1.4550293 0.01353516 2.93945312 0.02734375 C5.31406407 0.05073893 7.68814776 0.08351824 10.0625 0.125 C10.0625 0.455 10.0625 0.785 10.0625 1.125 C8.73798828 1.21587891 8.73798828 1.21587891 7.38671875 1.30859375 C0.66583997 1.77782804 -6.03380469 2.29610427 -12.73046875 3.0390625 C-14.9375 3.125 -14.9375 3.125 -17.9375 2.125 C-11.8759737 -0.01040594 -6.38873306 -0.11353866 0 0 Z " fill="#185184" transform="translate(506.9375,668.875)"/>
<path d="M0 0 C0.99 0 1.98 0 3 0 C3 0.99 3 1.98 3 3 C4.32 3.66 5.64 4.32 7 5 C7 5.66 7 6.32 7 7 C7.78375 7.2475 8.5675 7.495 9.375 7.75 C12.32317108 9.15389099 12.9024777 10.00675737 14 13 C10.87311213 11.58378621 8.46099085 9.87668024 5.875 7.625 C5.19179688 7.03976562 4.50859375 6.45453125 3.8046875 5.8515625 C1.99345245 3.99328239 1.01347365 2.3717373 0 0 Z " fill="#1B5389" transform="translate(291,432)"/>
<path d="M0 0 C6.81795238 1.41504672 12.73822453 3.98421843 19 7 C15.90279155 7.87840996 14.09354597 7.99435406 11 7 C11 6.34 11 5.68 11 5 C9.948125 4.8453125 9.948125 4.8453125 8.875 4.6875 C5.60862353 3.90640997 2.9528148 2.57941257 0 1 C0 0.67 0 0.34 0 0 Z " fill="#74BCE7" transform="translate(378,286)"/>
<path d="M0 0 C0 3.99897642 -1.35316035 5.06701552 -4 8 C-6.5625 10.375 -6.5625 10.375 -9 12 C-9.99 11.67 -10.98 11.34 -12 11 C-12.33 10.34 -12.66 9.68 -13 9 C-11.7315625 8.443125 -11.7315625 8.443125 -10.4375 7.875 C-6.45316122 5.7017243 -3.33363816 3.04761595 0 0 Z " fill="#4B8FC6" transform="translate(437,307)"/>
<path d="M0 0 C0.99 0.33 1.98 0.66 3 1 C1.21479439 3.00611734 -0.57758712 5.0048717 -2.375 7 C-2.88289062 7.57234375 -3.39078125 8.1446875 -3.9140625 8.734375 C-5.23504905 10.19441277 -6.61400799 11.60152157 -8 13 C-8.66 13 -9.32 13 -10 13 C-9.74501565 9.55771124 -8.8118705 8.83640913 -6.125 6.5 C-5.320625 5.87544922 -5.320625 5.87544922 -4.5 5.23828125 C-2.6508504 3.71176973 -1.32606035 1.98909053 0 0 Z " fill="#1E5F9D" transform="translate(710,578)"/>
<path d="M0 0 C2.79297711 0.44099639 5.31340243 1.10446748 8 2 C8 2.66 8 3.32 8 4 C10.64 4.33 13.28 4.66 16 5 C15.67 6.32 15.34 7.64 15 9 C9.66666667 6.33333333 4.33333333 3.66666667 -1 1 C-0.67 0.67 -0.34 0.34 0 0 Z " fill="#1F548B" transform="translate(416,435)"/>
<path d="M0 0 C0.33 0.66 0.66 1.32 1 2 C0.10333658 4.24310013 -0.89146683 6.44754321 -1.9375 8.625 C-2.50339844 9.81351562 -3.06929688 11.00203125 -3.65234375 12.2265625 C-4.09707031 13.14179688 -4.54179687 14.05703125 -5 15 C-5.99 14.01 -6.98 13.02 -8 12 C-7.67 11.01 -7.34 10.02 -7 9 C-6.34 9 -5.68 9 -5 9 C-4.87625 7.88625 -4.87625 7.88625 -4.75 6.75 C-3.8603054 3.48778646 -2.51496251 2.19045122 0 0 Z " fill="#1B588E" transform="translate(432,412)"/>
<path d="M0 0 C0 0.66 0 1.32 0 2 C-0.928125 2.4021875 -0.928125 2.4021875 -1.875 2.8125 C-4.2995233 3.95556848 -4.2995233 3.95556848 -6 7 C-6.99 7 -7.98 7 -9 7 C-9.12375 7.639375 -9.2475 8.27875 -9.375 8.9375 C-9.58125 9.618125 -9.7875 10.29875 -10 11 C-10.99 11.495 -10.99 11.495 -12 12 C-12.66 11.34 -13.32 10.68 -14 10 C-12.56458334 8.70601853 -11.12658648 7.41489889 -9.6875 6.125 C-8.88699219 5.40570312 -8.08648437 4.68640625 -7.26171875 3.9453125 C-2.6746988 0 -2.6746988 0 0 0 Z " fill="#174E7F" transform="translate(475,678)"/>
<path d="M0 0 C0.99 0.33 1.98 0.66 3 1 C2.360625 1.78375 1.72125 2.5675 1.0625 3.375 C-0.98142313 5.79539281 -0.98142313 5.79539281 -2 8 C-2.99 8 -3.98 8 -5 8 C-5.33 8.99 -5.66 9.98 -6 11 C-6.66 10.01 -7.32 9.02 -8 8 C-5.36 5.36 -2.72 2.72 0 0 Z " fill="#2E3E4E" transform="translate(301,679)"/>
<path d="M0 0 C0 3.59857954 -0.95830515 5.09451118 -3 8 C-3.66 8 -4.32 8 -5 8 C-5.33 8.99 -5.66 9.98 -6 11 C-8.21701147 12.58965571 -10.57862473 13.72327486 -13 15 C-11.73507097 11.20521291 -9.8946497 9.76879537 -7 7 C-5.72653282 5.73180598 -4.4557582 4.46090326 -3.1875 3.1875 C-2.125 2.125 -1.0625 1.0625 0 0 Z " fill="#0F3B61" transform="translate(663,630)"/>
<path d="M0 0 C-0.33 0.66 -0.66 1.32 -1 2 C-1.804375 1.95875 -2.60875 1.9175 -3.4375 1.875 C-7.13727617 2.00481671 -10.29374634 2.70516349 -13.8515625 3.66015625 C-16.21444318 4.03392101 -17.74254178 3.73035413 -20 3 C-13.19877155 -0.13902852 -7.43378943 -0.33452052 0 0 Z " fill="#4E92C6" transform="translate(649,538)"/>
<path d="M0 0 C0.33 0.99 0.66 1.98 1 3 C0.2884375 3.6496875 0.2884375 3.6496875 -0.4375 4.3125 C-2.23686957 6.02309613 -2.23686957 6.02309613 -3 9 C-5.21701147 10.58965571 -7.57862473 11.72327486 -10 13 C-8.59799333 8.5390697 -6.40216594 6.15322697 -3 3 C-2.401875 2.401875 -1.80375 1.80375 -1.1875 1.1875 C-0.795625 0.795625 -0.40375 0.40375 0 0 Z " fill="#186EBA" transform="translate(314,403)"/>
<path d="M0 0 C0.99 0.495 0.99 0.495 2 1 C1.01 1.495 1.01 1.495 0 2 C0 1.34 0 0.68 0 0 Z M-2.13671875 1.6875 C-1.43160156 1.790625 -0.72648437 1.89375 0 2 C-2 5 -2 5 -4.1875 5.8125 C-8.10951715 7.4684628 -10.88536378 10.14566479 -14 13 C-14.66 12.67 -15.32 12.34 -16 12 C-14.28424984 10.31730282 -12.55467361 8.65495311 -10.8125 7 C-10.32974609 6.52304688 -9.84699219 6.04609375 -9.34960938 5.5546875 C-6.92572892 3.27721593 -5.49369977 2.05388265 -2.13671875 1.6875 Z " fill="#5EB2E1" transform="translate(473,202)"/>
<path d="M0 0 C0 3 0 3 -1.8984375 5.15625 C-2.71570313 5.9296875 -3.53296875 6.703125 -4.375 7.5 C-6.95217904 9.95445623 -9.01930122 12.02895183 -11 15 C-11.99 14.67 -12.98 14.34 -14 14 C-9.33333333 9.33333333 -4.66666667 4.66666667 0 0 Z " fill="#0D3253" transform="translate(646,649)"/>
<path d="M0 0 C0.99 0 1.98 0 3 0 C3 3.63 3 7.26 3 11 C1.02 11.99 1.02 11.99 -1 13 C-1.33 13.99 -1.66 14.98 -2 16 C-2.66 16 -3.32 16 -4 16 C-2.95161524 13.74194052 -2.05351243 12.05549438 -0.3125 10.25 C1.74816107 6.71743816 0.72472705 3.95305664 0 0 Z " fill="#5AA0D2" transform="translate(446,288)"/>
<path d="M0 0 C0.99 0.66 1.98 1.32 3 2 C-5.91 2.99 -5.91 2.99 -15 4 C-12.60939149 2.40626099 -10.69171821 1.34702924 -8.0625 0.3125 C-7.39347656 0.04050781 -6.72445313 -0.23148437 -6.03515625 -0.51171875 C-3.60465236 -1.09485308 -2.33361603 -0.85330202 0 0 Z " fill="#78C2EB" transform="translate(333,286)"/>
<path d="M0 0 C4.3328357 0.55907557 7.90677359 2.21948426 11.81640625 4.0625 C13.9526214 5.05567078 13.9526214 5.05567078 16.15234375 5.5 C18 6 18 6 20 8 C14.78254934 7.47493172 10.77348889 6.2201441 6.0625 3.9375 C4.91910156 3.38964844 3.77570313 2.84179688 2.59765625 2.27734375 C1.74042969 1.85582031 0.88320313 1.43429687 0 1 C0 0.67 0 0.34 0 0 Z " fill="#0D335A" transform="translate(473,791)"/>
<path d="M0 0 C0.99 0.33 1.98 0.66 3 1 C4.80886571 5.76017293 5.20666253 9.93676791 5 15 C3.25050228 12.37575342 2.34610019 10.44272784 1.375 7.5 C0.98441406 6.33984375 0.98441406 6.33984375 0.5859375 5.15625 C0 3 0 3 0 0 Z " fill="#72B5E1" transform="translate(441,273)"/>
<path d="M0 0 C0.556875 0.28875 1.11375 0.5775 1.6875 0.875 C3.99704416 2.08130305 3.99704416 2.08130305 6.625 2.75 C9 4 9 4 10.3125 7.125 C10.6528125 8.548125 10.6528125 8.548125 11 10 C10.01 9.67 9.02 9.34 8 9 C7.67 8.01 7.34 7.02 7 6 C5.15028304 4.94978897 5.15028304 4.94978897 3 4 C1.64886795 3.02418241 0.31053056 2.02970259 -1 1 C-0.67 0.67 -0.34 0.34 0 0 Z " fill="#4EADE8" transform="translate(545,206)"/>
<path d="M0 0 C3.5718623 3.5718623 4 8.10186234 4 13 C3.01 12.67 2.02 12.34 1 12 C0.03929566 9.11788698 -0.10581883 7.30149956 -0.0625 4.3125 C-0.05347656 3.50425781 -0.04445313 2.69601562 -0.03515625 1.86328125 C-0.02355469 1.24839844 -0.01195312 0.63351562 0 0 Z " fill="#519ED8" transform="translate(267,384)"/>
<path d="M0 0 C-5.00932754 3.00559652 -8.32723489 3.29341888 -14 3 C-9.7368213 0.15788087 -5.03577274 -2.0143091 0 0 Z " fill="#7EC4E9" transform="translate(495,194)"/>
<path d="M0 0 C2.31 0 4.62 0 7 0 C3.4164295 3.5835705 -2.23301685 4.760878 -7.21484375 5.19140625 C-8.81116803 5.18814178 -10.40705643 5.10388762 -12 5 C-12 4.67 -12 4.34 -12 4 C-8.04 3.34 -4.08 2.68 0 2 C0 1.34 0 0.68 0 0 Z " fill="#143760" transform="translate(527,796)"/>
<path d="M0 0 C4.75481646 0.57634139 7.97048212 2.55068521 12 5 C12 5.33 12 5.66 12 6 C8.18683244 6.57775266 6.23331413 5.71685634 3.1875 3.5625 C1.35546875 2.19140625 1.35546875 2.19140625 0 1 C0 0.67 0 0.34 0 0 Z " fill="#4082BB" transform="translate(695,543)"/>
<path d="M0 0 C0.66 0.33 1.32 0.66 2 1 C0.125 5.75 0.125 5.75 -1 8 C-4.16115776 6.63016497 -4.9927092 6.0109362 -7 3 C-6.401875 3.185625 -5.80375 3.37125 -5.1875 3.5625 C-2.83591238 4.22093687 -2.83591238 4.22093687 0 3 C0 2.01 0 1.02 0 0 Z " fill="#365A7C" transform="translate(441,444)"/>
<path d="M0 0 C0.99 0.33 1.98 0.66 3 1 C2.55090939 2.48199902 2.09043436 3.96055236 1.625 5.4375 C1.36976563 6.26121094 1.11453125 7.08492188 0.8515625 7.93359375 C0 10 0 10 -2 11 C-3.13643966 7.59068103 -2.86747764 6.99664544 -1.5625 3.8125 C-1.13130859 2.73935547 -1.13130859 2.73935547 -0.69140625 1.64453125 C-0.46324219 1.10183594 -0.23507812 0.55914062 0 0 Z " fill="#366B9F" transform="translate(435,402)"/>
<path d="M0 0 C0.66 0 1.32 0 2 0 C1.35494404 3.48330216 0.01782732 6.09432866 -2 9 C-2.66 9 -3.32 9 -4 9 C-2.25 2.25 -2.25 2.25 0 0 Z " fill="#2F6DA5" transform="translate(583,585)"/>
<path d="M0 0 C1.32 0 2.64 0 4 0 C2.33333333 3.33333333 0.66666667 6.66666667 -1 10 C-1.99 10 -2.98 10 -4 10 C-3.34 9.34 -2.68 8.68 -2 8 C-1.32707499 6.03309626 -1.32707499 6.03309626 -0.875 3.875 C-0.58625 2.59625 -0.2975 1.3175 0 0 Z " fill="#234D75" transform="translate(592,565)"/>
<path d="M0 0 C3.86933162 0.57323431 6.15222057 2.38953552 9 5 C9 5.66 9 6.32 9 7 C8.01 6.67 7.02 6.34 6 6 C6 5.34 6 4.68 6 4 C3.03 3.505 3.03 3.505 0 3 C0 2.01 0 1.02 0 0 Z " fill="#3077B4" transform="translate(706,549)"/>
<path d="M0 0 C-6.39130435 4.26086957 -6.39130435 4.26086957 -10.3125 3.625 C-10.869375 3.41875 -11.42625 3.2125 -12 3 C-8.2699487 -0.7300513 -5.02945658 -1.43698759 0 0 Z " fill="#69A7D7" transform="translate(533,322)"/>
<path d="M0 0 C0.66 0 1.32 0 2 0 C1.39593483 3.38276494 0.14257201 5.34321071 -2 8 C-2.66 8.99 -3.32 9.98 -4 11 C-4.25 5.375 -4.25 5.375 -2 2 C-1.34 2 -0.68 2 0 2 C0 1.34 0 0.68 0 0 Z " fill="#5193C9" transform="translate(437,319)"/>
<path d="M0 0 C0.66 0.33 1.32 0.66 2 1 C0.90344712 2.31886772 -0.20253423 3.62990057 -1.3125 4.9375 C-1.92738281 5.66839844 -2.54226563 6.39929688 -3.17578125 7.15234375 C-5 9 -5 9 -8 10 C-6.44303593 6.17836093 -3.96591316 3.81381505 -1 1 C-0.67 0.67 -0.34 0.34 0 0 Z " fill="#09325B" transform="translate(557,777)"/>
<path d="M0 0 C0.66 0 1.32 0 2 0 C1.69381595 3.67420866 1.24228216 4.78135513 -1.5625 7.3125 C-2.366875 7.869375 -3.17125 8.42625 -4 9 C-4.33 8.01 -4.66 7.02 -5 6 C-4.01 6 -3.02 6 -2 6 C-2 5.01 -2 4.02 -2 3 C-1.34 3 -0.68 3 0 3 C0 2.01 0 1.02 0 0 Z " fill="#539CD1" transform="translate(557,300)"/>
<path d="M0 0 C0.33 0.99 0.66 1.98 1 3 C-0.43359375 5.48046875 -0.43359375 5.48046875 -2.4375 8.1875 C-3.09621094 9.08855469 -3.75492188 9.98960937 -4.43359375 10.91796875 C-5.20896484 11.94857422 -5.20896484 11.94857422 -6 13 C-6.33 12.34 -6.66 11.68 -7 11 C-6.07421875 9.16015625 -6.07421875 9.16015625 -4.6875 7.0625 C-4.23761719 6.37285156 -3.78773438 5.68320312 -3.32421875 4.97265625 C-2.88722656 4.32167969 -2.45023438 3.67070313 -2 3 C-1.34 2.01 -0.68 1.02 0 0 Z " fill="#0D3362" transform="translate(566,764)"/>
<path d="M0 0 C0.66 0 1.32 0 2 0 C0.4169423 4.2742558 -2.50568404 6.26531794 -6 9 C-5.4409112 5.75728494 -4.5867822 4.06942576 -2 2 C-1.34 2 -0.68 2 0 2 C0 1.34 0 0.68 0 0 Z " fill="#16538A" transform="translate(674,616)"/>
<path d="M0 0 C1.34771696 2.21976911 2.04398726 3.50147776 1.8125 6.125 C1 8 1 8 -2 10 C-1.54177532 6.53058454 -1.10868317 3.32604951 0 0 Z " fill="#3872A9" transform="translate(578,594)"/>
<path d="M0 0 C0.66 0 1.32 0 2 0 C2 1.32 2 2.64 2 4 C-2.22222222 8 -2.22222222 8 -5 8 C-3.63055898 5.05043472 -2.12169591 2.47531189 0 0 Z " fill="#495A67" transform="translate(624,412)"/>
<path d="M0 0 C1.32 0.33 2.64 0.66 4 1 C-0.455 3.97 -0.455 3.97 -5 7 C-5 5.68 -5 4.36 -5 3 C-3.68 3 -2.36 3 -1 3 C-0.67 2.01 -0.34 1.02 0 0 Z " fill="#5396CD" transform="translate(545,312)"/>
<path d="M0 0 C1.1171875 1.734375 1.1171875 1.734375 2 4 C1.3203125 6.140625 1.3203125 6.140625 0.125 8.25 C-0.26429688 8.95640625 -0.65359375 9.6628125 -1.0546875 10.390625 C-1.36664063 10.92171875 -1.67859375 11.4528125 -2 12 C-3.12377697 8.69564916 -2.89554742 6.9493138 -1.5625 3.75 C-1.27503906 3.04359375 -0.98757813 2.3371875 -0.69140625 1.609375 C-0.46324219 1.07828125 -0.23507812 0.5471875 0 0 Z " fill="#174672" transform="translate(446,711)"/>
<path d="M0 0 C0.99 0.33 1.98 0.66 3 1 C0.63707344 3.52588702 -0.66462511 4.88820837 -4 6 C-4.33 5.01 -4.66 4.02 -5 3 C-2.6875 1.4375 -2.6875 1.4375 0 0 Z " fill="#2B618F" transform="translate(479,674)"/>
<path d="M0 0 C2.43929746 1.92576115 4.80090595 3.80090595 7 6 C6.01 6.66 5.02 7.32 4 8 C2 6.25 2 6.25 0 4 C0 2.68 0 1.36 0 0 Z " fill="#3D8BC7" transform="translate(286,425)"/>
<path d="M0 0 C4.08378283 0.74250597 8.01939223 1.82923301 12 3 C11.67 3.66 11.34 4.32 11 5 C6.69159287 3.92289822 3.36423277 2.96052484 0 0 Z " fill="#609FCE" transform="translate(476,319)"/>
<path d="M0 0 C1.1875 1.625 1.1875 1.625 2 4 C0.625 7.25 0.625 7.25 -1 10 C-1.66 9.34 -2.32 8.68 -3 8 C-2.60495559 5.0371669 -1.40182371 2.61673759 0 0 Z " fill="#509ED7" transform="translate(567,284)"/>
<path d="M0 0 C-0.66 0 -1.32 0 -2 0 C-2.66 1.32 -3.32 2.64 -4 4 C-6.97 3.505 -6.97 3.505 -10 3 C-3.66666667 -1.22222222 -3.66666667 -1.22222222 0 0 Z " fill="#4C7EA6" transform="translate(491,671)"/>
<path d="M0 0 C0 3.17370278 -0.30933342 4.3794668 -2 7 C-4.125 8.25 -4.125 8.25 -6 9 C-6 5 -6 5 -4.6875 3.515625 C-3.125 2.34375 -1.5625 1.171875 0 0 Z " fill="#4583B2" transform="translate(602,559)"/>
<path d="M0 0 C0 0.99 0 1.98 0 3 C-3.32534757 4.10844919 -5.62182575 3.84454356 -9 3 C-5.73209435 0.82139623 -3.91954654 0 0 0 Z " fill="#4C5F70" transform="translate(492,428)"/>
<path d="M0 0 C0.66 0 1.32 0 2 0 C0.44499019 3.81684226 -2.03595495 6.19195732 -5 9 C-5 4.68381834 -2.86729652 3.07210341 0 0 Z " fill="#217BC8" transform="translate(353,359)"/>
<path d="M0 0 C0.33 0.99 0.66 1.98 1 3 C-1.3125 5.5 -1.3125 5.5 -4 8 C-4.99 8 -5.98 8 -7 8 C-4.69 5.36 -2.38 2.72 0 0 Z " fill="#1B4E80" transform="translate(460,689)"/>
<path d="M0 0 C1.77706209 2.66559313 2.87548273 5.0280615 4 8 C3.34 8.66 2.68 9.32 2 10 C1.01 7.03 0.02 4.06 -1 1 C-0.67 0.67 -0.34 0.34 0 0 Z " fill="#60A9D9" transform="translate(272,401)"/>
<path d="M0 0 C1.55136786 2.46393719 2.03039129 3.68089146 1.75 6.625 C1 9 1 9 -1 11 C-1.14285714 3.57142857 -1.14285714 3.57142857 0 0 Z " fill="#5FAADD" transform="translate(570,275)"/>
<path d="M0 0 C4.99275057 1.27721526 7.57611908 3.17330957 11 7 C10.484375 6.731875 9.96875 6.46375 9.4375 6.1875 C6.33598585 4.67650593 3.17737194 3.34427274 0 2 C0 1.34 0 0.68 0 0 Z " fill="#5DAEDC" transform="translate(540,202)"/>
<path d="M0 0 C0.66 0.33 1.32 0.66 2 1 C-0.3125 3.5 -0.3125 3.5 -3 6 C-3.99 6 -4.98 6 -6 6 C-6 5.34 -6 4.68 -6 4 C-4.03852126 2.61061923 -2.03833424 1.2739589 0 0 Z " fill="#16467A" transform="translate(570,690)"/>
<path d="M0 0 C0 0.99 0 1.98 0 3 C-3.33333333 6 -3.33333333 6 -6 6 C-4.95125002 3.37812506 -4.35068687 2.20628639 -1.875 0.75 C-1.25625 0.5025 -0.6375 0.255 0 0 Z " fill="#2267A7" transform="translate(598,566)"/>
<path d="M0 0 C1.875 0.3125 1.875 0.3125 4 1 C6 4 6 4 5.625 6.1875 C5.41875 6.785625 5.2125 7.38375 5 8 C0 2.25 0 2.25 0 0 Z " fill="#66A9D7" transform="translate(280,420)"/>
<path d="M0 0 C2 1 2 1 2 1 Z M-3 1 C-2.01 1.33 -1.02 1.66 0 2 C-1.65 3.65 -3.3 5.3 -5 7 C-5.66 6.67 -6.32 6.34 -7 6 C-5.68 4.35 -4.36 2.7 -3 1 Z " fill="#388BCE" transform="translate(444,303)"/>
<path d="M0 0 C0.99 0.66 1.98 1.32 3 2 C1.75 3.5625 1.75 3.5625 0 5 C-2.1875 4.6875 -2.1875 4.6875 -4 4 C-2.68 2.68 -1.36 1.36 0 0 Z " fill="#14395B" transform="translate(712,579)"/>
<path d="M0 0 C0.66 0 1.32 0 2 0 C1.67 2.31 1.34 4.62 1 7 C0.34 7 -0.32 7 -1 7 C-0.67 4.69 -0.34 2.38 0 0 Z " fill="#1A5793" transform="translate(437,396)"/>
<path d="M0 0 C0.99 0 1.98 0 3 0 C2.67 1.98 2.34 3.96 2 6 C1.01 6 0.02 6 -1 6 C-0.67 4.02 -0.34 2.04 0 0 Z " fill="#68B4E6" transform="translate(270,340)"/>
<path d="M0 0 C-2.38573379 1.89213369 -4.07175348 3.02391783 -7 4 C-6.625 2.0625 -6.625 2.0625 -6 0 C-3.50907189 -1.24546405 -2.58919267 -0.7767578 0 0 Z " fill="#619FD7" transform="translate(456,307)"/>
<path d="M0 0 C1.98 0 3.96 0 6 0 C6.66 1.32 7.32 2.64 8 4 C5.64828869 3.40138258 3.3140622 2.73075648 1 2 C0.67 1.34 0.34 0.68 0 0 Z " fill="#55B0E4" transform="translate(526,196)"/>
</svg>
